<svg width="27" height="24" viewBox="0 0 27 24" fill="none" xmlns="http://www.w3.org/2000/svg">
<g clip-path="url(#clip0_407_571)">
<path d="M13.1779 2.163C16.6964 2.163 17.1137 2.175 18.504 2.233C22.0752 2.381 23.7433 3.924 23.9058 7.152C23.9695 8.417 23.9816 8.797 23.9816 12.001C23.9816 15.206 23.9684 15.585 23.9058 16.85C23.7422 20.075 22.0785 21.621 18.504 21.769C17.1137 21.827 16.6986 21.839 13.1779 21.839C9.65941 21.839 9.24211 21.827 7.85294 21.769C4.27294 21.62 2.61362 20.07 2.45109 16.849C2.3874 15.584 2.37422 15.205 2.37422 12C2.37422 8.796 2.3885 8.417 2.45109 7.151C2.61472 3.924 4.27843 2.38 7.85294 2.232C9.24321 2.175 9.65941 2.163 13.1779 2.163ZM13.1779 0C9.59901 0 9.15096 0.014 7.74532 0.072C2.95954 0.272 0.299798 2.69 0.0801656 7.052C0.0153742 8.333 0 8.741 0 12C0 15.259 0.0153742 15.668 0.0790675 16.948C0.298699 21.306 2.95405 23.728 7.74422 23.928C9.15096 23.986 9.59901 24 13.1779 24C16.7568 24 17.206 23.986 18.6116 23.928C23.393 23.728 26.0593 21.31 26.2757 16.948C26.3405 15.668 26.3558 15.259 26.3558 12C26.3558 8.741 26.3405 8.333 26.2768 7.053C26.0615 2.699 23.4029 0.273 18.6127 0.073C17.206 0.014 16.7568 0 13.1779 0V0ZM13.1779 5.838C9.44088 5.838 6.41105 8.597 6.41105 12C6.41105 15.403 9.44088 18.163 13.1779 18.163C16.9149 18.163 19.9448 15.404 19.9448 12C19.9448 8.597 16.9149 5.838 13.1779 5.838ZM13.1779 16C10.7521 16 8.78528 14.21 8.78528 12C8.78528 9.791 10.7521 8 13.1779 8C15.6037 8 17.5706 9.791 17.5706 12C17.5706 14.21 15.6037 16 13.1779 16ZM20.2127 4.155C19.3386 4.155 18.6303 4.8 18.6303 5.595C18.6303 6.39 19.3386 7.035 20.2127 7.035C21.0858 7.035 21.793 6.39 21.793 5.595C21.793 4.8 21.0858 4.155 20.2127 4.155Z" fill="white"/>
</g>
<defs>
<clipPath id="clip0_407_571">
<rect width="26.3558" height="24" fill="white"/>
</clipPath>
</defs>
</svg>
