<?xml version="1.0" encoding="utf-8"?>
<!-- Generator: Adobe Illustrator 24.1.2, SVG Export Plug-In . SVG Version: 6.00 Build 0)  -->
<svg version="1.1" id="Слой_1" xmlns="http://www.w3.org/2000/svg" xmlns:xlink="http://www.w3.org/1999/xlink" x="0px" y="0px"
	 viewBox="0 0 1024 1024" style="enable-background:new 0 0 1024 1024;" xml:space="preserve">
<style type="text/css">
	.st0{display:none;fill:url(#XMLID_4_);}
	.st1{display:none;}
	.st2{fill:#EED486;}
	.st3{fill:url(#SVGID_1_);}
	.st4{fill:#E9F3D0;}
	.st5{fill:none;stroke:#E9F3D0;stroke-width:14;stroke-linecap:round;stroke-miterlimit:10;}
	.st6{fill:none;stroke:#E9F3D0;stroke-width:11;stroke-linecap:round;stroke-miterlimit:10;}
	.st7{fill:url(#SVGID_2_);}
	.st8{fill:url(#SVGID_3_);}
	.st9{fill:url(#SVGID_4_);}
	.st10{fill:url(#SVGID_5_);}
	.st11{fill:url(#SVGID_6_);}
	.st12{fill:url(#SVGID_7_);}
	.st13{fill:url(#SVGID_8_);}
	.st14{fill:url(#SVGID_9_);}
	.st15{fill:url(#SVGID_10_);}
	.st16{fill:url(#SVGID_11_);}
	.st17{fill:url(#SVGID_12_);}
	.st18{fill:#0C292E;}
	.st19{display:inline;fill:#FFFFFF;}
	.st20{display:inline;}
	.st21{fill:#FFFFFF;}
	.st22{display:inline;fill:#0C292E;}
</style>
<radialGradient id="XMLID_4_" cx="511.4497" cy="510.2967" r="512" fx="450.6378" fy="317.0504" gradientUnits="userSpaceOnUse">
	<stop  offset="0" style="stop-color:#D6CEB6"/>
	<stop  offset="0.4096" style="stop-color:#D0C7AF"/>
	<stop  offset="1" style="stop-color:#C1B69B"/>
</radialGradient>
<rect id="XMLID_1_" x="-0.6" y="-1.7" class="st0" width="1024" height="1024"/>
<rect id="XMLID_2_" class="st1" width="1024" height="1024"/>
<g id="Logo">
	<g>
		<ellipse class="st2" cx="512.3" cy="406.6" rx="257.1" ry="250.2"/>
	</g>
	<g>
		
			<linearGradient id="SVGID_1_" gradientUnits="userSpaceOnUse" x1="269.8296" y1="463.3282" x2="745.9883" y2="463.3282" gradientTransform="matrix(-1.693524e-02 -0.9785 1.019 -1.763535e-02 47.4475 916.9999)">
			<stop  offset="0" style="stop-color:#CBDEA6"/>
			<stop  offset="1" style="stop-color:#A6ECE8"/>
		</linearGradient>
		<path class="st3" d="M503.9,178.9C635,176.7,743,279.1,745.2,407.8C747.4,536.4,643,642.6,512,644.9s-233-100.3-235.3-229
			S372.9,181.2,503.9,178.9z"/>
	</g>
	<g>
		<path class="st4" d="M368.3,583.1c32.9-9.1,84.2-23.7,121.8-52.1c23.6-17.8,27.1,13.1,79.6,25.3c52.7,12.3,73.2,22.1,92.2,28
			c10.6,3.3-16.1,16.5-21.8,19.1c-81.5,36.7-124.8,40.6-140.1,40.1C439.7,641.5,337.2,591.7,368.3,583.1z"/>
	</g>
	<path class="st5" d="M511.5,539.5c22.9-29.2,71.9-64.5,39.7-103.3c-12.2-14.7-16.9-11.8-53-30.9c-18.3-9.6-44.6-40.2-32.8-71
		c7.5-19.5,28.3-32,46.8-32.3c19.6-0.3,32.8,16.2,45,29.5c2.2,2.4,6.5,18.6-0.7,31c-0.9,1.6-7.2,8.2-15.5,8.1
		c-5.3,0-10.1,2-16.2-3.6"/>
	<path class="st6" d="M511.7,521.3c-28.7-7.5-48.8-24.1-50.2-42.4c-0.6-7.5,1.6-21.2,11.2-26.2c5.6-2.9,16.5-2.9,22.6,1.2
		c6.4,4.4,11.3,12.3,10.5,16.7"/>
	<g id="Листки">
		<g>
			<linearGradient id="SVGID_2_" gradientUnits="userSpaceOnUse" x1="495.4969" y1="230.8407" x2="526.2976" y2="230.8407">
				<stop  offset="0" style="stop-color:#CBFFFF"/>
				<stop  offset="1" style="stop-color:#659A5E"/>
			</linearGradient>
			<path class="st7" d="M526.3,230.8c0,14.5-15.4,26.3-15.4,26.3s-15.4-11.8-15.4-26.3c0-14.5,15.4-26.3,15.4-26.3
				S526.3,216.3,526.3,230.8z"/>
		</g>
		<g>
			
				<linearGradient id="SVGID_3_" gradientUnits="userSpaceOnUse" x1="414.1701" y1="274.1585" x2="444.9709" y2="274.1585" gradientTransform="matrix(0.8451 -0.5347 0.5347 0.8451 -82.4251 250.2937)">
				<stop  offset="0" style="stop-color:#CBFFFF"/>
				<stop  offset="1" style="stop-color:#659A5E"/>
			</linearGradient>
			<path class="st8" d="M440.2,244.1c7.8,12.3,1.1,30.5,1.1,30.5s-19.3-1.7-27.1-14c-7.8-12.3-1.1-30.5-1.1-30.5
				S432.4,231.8,440.2,244.1z"/>
		</g>
		<g>
			
				<linearGradient id="SVGID_4_" gradientUnits="userSpaceOnUse" x1="492.5353" y1="493.567" x2="523.3361" y2="493.567" gradientTransform="matrix(0.8451 -0.5347 0.6636 1.0488 -142.447 155.4272)">
				<stop  offset="0" style="stop-color:#CBFFFF"/>
				<stop  offset="1" style="stop-color:#659A5E"/>
			</linearGradient>
			<path class="st9" d="M627.3,393.3c9.7,15.3,4.5,35.9,4.5,35.9s-20.8-4.1-30.5-19.4c-9.7-15.3-4.5-35.9-4.5-35.9
				S617.7,378,627.3,393.3z"/>
		</g>
		<g>
			
				<linearGradient id="SVGID_5_" gradientUnits="userSpaceOnUse" x1="333.3681" y1="291.1605" x2="364.1689" y2="291.1605" gradientTransform="matrix(0.7424 -0.6699 0.6699 0.7424 -88.5992 321.5897)">
				<stop  offset="0" style="stop-color:#CBFFFF"/>
				<stop  offset="1" style="stop-color:#659A5E"/>
			</linearGradient>
			<path class="st10" d="M376.8,293.8c9.7,10.8,6.2,29.9,6.2,29.9s-19.3,1.6-29.1-9.2c-9.7-10.8-6.2-29.9-6.2-29.9
				S367.1,283,376.8,293.8z"/>
		</g>
		<g>
			
				<linearGradient id="SVGID_6_" gradientUnits="userSpaceOnUse" x1="244.4029" y1="319.9037" x2="275.2037" y2="319.9037" gradientTransform="matrix(0.5493 -0.8356 0.8356 0.5493 -82.6382 423.4364)">
				<stop  offset="0" style="stop-color:#CBFFFF"/>
				<stop  offset="1" style="stop-color:#659A5E"/>
			</linearGradient>
			<path class="st11" d="M335.9,369.2c12.2,8,13.5,27.3,13.5,27.3s-18.3,6.4-30.5-1.6c-12.2-8-13.5-27.3-13.5-27.3
				S323.7,361.2,335.9,369.2z"/>
		</g>
		<g>
			
				<linearGradient id="SVGID_7_" gradientUnits="userSpaceOnUse" x1="135.3933" y1="398.0616" x2="166.1941" y2="398.0616" gradientTransform="matrix(-0.4613 -0.8872 0.8872 -0.4613 55.0088 787.9019)">
				<stop  offset="0" style="stop-color:#CBFFFF"/>
				<stop  offset="1" style="stop-color:#659A5E"/>
			</linearGradient>
			<path class="st12" d="M331.5,456.8c12.9-6.7,30.5,1.5,30.5,1.5s-3.4,19.1-16.3,25.8c-12.9,6.7-30.5-1.5-30.5-1.5
				S318.6,463.5,331.5,456.8z"/>
		</g>
		<g>
			
				<linearGradient id="SVGID_8_" gradientUnits="userSpaceOnUse" x1="129.3469" y1="93.9515" x2="160.1477" y2="93.9515" gradientTransform="matrix(-0.8451 -0.5347 -0.5347 0.8451 766.7098 250.2937)">
				<stop  offset="0" style="stop-color:#CBFFFF"/>
				<stop  offset="1" style="stop-color:#659A5E"/>
			</linearGradient>
			<path class="st13" d="M581.1,244.1c-7.8,12.3-1.1,30.5-1.1,30.5s19.3-1.7,27.1-14c7.8-12.3,1.1-30.5,1.1-30.5
				S588.9,231.8,581.1,244.1z"/>
		</g>
		<g>
			
				<linearGradient id="SVGID_9_" gradientUnits="userSpaceOnUse" x1="83.1382" y1="65.3646" x2="113.9389" y2="65.3646" gradientTransform="matrix(-0.7424 -0.6699 -0.6699 0.7424 772.8839 321.5897)">
				<stop  offset="0" style="stop-color:#CBFFFF"/>
				<stop  offset="1" style="stop-color:#659A5E"/>
			</linearGradient>
			<path class="st14" d="M644.5,293.8c-9.7,10.8-6.2,29.9-6.2,29.9s19.3,1.6,29.1-9.2c9.7-10.8,6.2-29.9,6.2-29.9
				S654.2,283,644.5,293.8z"/>
		</g>
		<g>
			
				<linearGradient id="SVGID_10_" gradientUnits="userSpaceOnUse" x1="197.2827" y1="316.399" x2="228.0835" y2="316.399" gradientTransform="matrix(-0.8964 -0.4432 -0.5648 1.1424 773.9644 133.363)">
				<stop  offset="0" style="stop-color:#CBFFFF"/>
				<stop  offset="1" style="stop-color:#659A5E"/>
			</linearGradient>
			<path class="st15" d="M390.8,393.7c-8.2,16.6-1.1,36.9-1.1,36.9s20.5-6.6,28.7-23.3c8.2-16.6,1.1-36.9,1.1-36.9
				S399,377.1,390.8,393.7z"/>
		</g>
		<g>
			
				<linearGradient id="SVGID_11_" gradientUnits="userSpaceOnUse" x1="59.2586" y1="38.2649" x2="90.0594" y2="38.2649" gradientTransform="matrix(-0.5493 -0.8356 -0.8356 0.5493 766.9228 423.4364)">
				<stop  offset="0" style="stop-color:#CBFFFF"/>
				<stop  offset="1" style="stop-color:#659A5E"/>
			</linearGradient>
			<path class="st16" d="M685.5,369.2c-12.2,8-13.5,27.3-13.5,27.3s18.3,6.4,30.5-1.6c12.2-8,13.5-27.3,13.5-27.3
				S697.6,361.2,685.5,369.2z"/>
		</g>
		<g>
			
				<linearGradient id="SVGID_12_" gradientUnits="userSpaceOnUse" x1="290.8841" y1="99.0274" x2="321.6848" y2="99.0274" gradientTransform="matrix(0.4613 -0.8872 -0.8872 -0.4613 629.2759 787.9019)">
				<stop  offset="0" style="stop-color:#CBFFFF"/>
				<stop  offset="1" style="stop-color:#659A5E"/>
			</linearGradient>
			<path class="st17" d="M689.8,456.8c-12.9-6.7-30.5,1.5-30.5,1.5s3.4,19.1,16.3,25.8c12.9,6.7,30.5-1.5,30.5-1.5
				S702.7,463.5,689.8,456.8z"/>
		</g>
	</g>
	<g transform="translate(0.000000,1024.000000) scale(0.100000,-0.100000)">
		<path class="st18" d="M7735.9,6538.6c-77,450-271,870-575,1248c-77,95-264,282-342,341c-150,115-373,258-504,324
			c-171,86-498,197-691,234c-167,33-523,56-675,45c-85-7-204-24-344-50c-622-117-1219-481-1597-974c-155-202-310-479-384-685
			c-86-243-126-431-151-715c-24-271,15-652,88-869c165-494,415-881,776-1202c45-41,84-76,87-79c13-14,253-181,311-217
			c241-150,555-268,894-334c231-46,473-59,695-40c331,29,738,140,1004,273c141,71,261,147,416,265c149,112,200,158,311,279
			c135,146,358,460,428,604c18,36,41,79,50,95c68,113,169,444,208,680C7767.9,5928.6,7765.9,6362.6,7735.9,6538.6z M7577.9,5536.6
			c-22-90-95-293-141-390c-185-394-472-744-809-986c-207-149-308-205-524-292c-199-80-353-121-630-168c-144-24-513-30-671-11
			c-153,19-446,92-592,147c-140,52-351,156-452,221c-441,287-740,619-950,1054c-115,239-168,404-204,641c-108,693,94,1406,559,1979
			c105,129,248,256,473,423c127,94,376,222,587,303c210,80,388,122,595,139c72,5,150,12,175,14c88,8,377-4,490-20
			c263-36,664-167,830-269c19-12,75-43,124-69c104-55,285-187,406-295c109-97,91-78,201-211c301-362,481-732,563-1157
			C7676.9,6231.6,7666.9,5897.6,7577.9,5536.6z"/>
		<path class="st18" d="M7078.9,7526.6c-83,120-236,292-340,382c-218,190-575,388-859,478c-299,94-581,132-876,119
			c-366-17-675-98-1005-263c-261-131-452-271-656-481c-190-195-403-538-512-825c-93-244-136-472-144-765c-4-182-2-229,16-350
			c40-268,97-448,216-685c170-339,411-634,679-832c50-37,118-87,151-112c175-129,485-265,745-327c231-55,322-69,494-78
			c220-11,358-1,581,44c376,75,613,166,860,331c371,247,511,385,741,732c146,219,236,423,302,682c55,217,72,340,72,523
			C7543.9,6621.6,7399.9,7063.6,7078.9,7526.6z M3722.9,4330.6c-21,14-21,14,7,29c16,8,85,33,154,56c69,23,134,46,145,52
			c11,5,70,25,130,43c133,41,292,101,400,151c44,20,104,45,133,56c70,24,146,66,173,95c26,27,59,32,59,8c0-9-6-28-14-42
			c-8-15-24-48-36-75c-16-34-34-54-63-71c-112-65-250-129-327-153c-47-15-132-44-190-65c-102-38-258-81-408-113
			C3808.9,4285.6,3778.9,4291.6,3722.9,4330.6z M4900.9,5394.6c12-13,31-18,71-18c71,0,132,34,167,94c33,56,35,155,5,219
			c-27,57-102,129-170,164c-48,24-66,28-141,27c-72,0-94-4-141-27c-74-36-149-117-178-192c-19-48-24-79-24-160
			c-1-157,32-236,167-402c54-66,62-80,39-69c-149,71-190,94-247,138c-85,64-242,222-311,313c-47,63-175,305-173,330c0,6,38,41,85,79
			c91,73,172,163,204,227c58,113,63,259,16,443c-15,54-26,100-26,102c0,2-8,4-19,4c-22,0-134-82-219-161
			c-39.4-37.5-105.6-128.3-105.6-128.3s5.9,30.9,28.6,87.3c4,9,18,52,31,95c31,96,81,201,123,259c55,75,227,243,303,295
			c97,67,248,150,327,180c90,34,316,70,270,43c-9-5-49-21-90-36c-203-72-301-164-380-353c-46-109-58-172-59-291c0-127,17-198,71-298
			c85-158,161-217,460-358c324-153,367-187,429-339c61-149,2-310-150-412c-89-60-126-70-203-54c-126,26-241,120-271,221
			c-23,76-20,106,14,178c17,35,30,68,30,73c0,18-58,9-86-13c-38-30-51-46-70-88c-23-52-13-155,23-227c29-58,118-154,165-179
			c15-8,44-25,64-39c20-14,54-30,75-35c42-12,51-33,20-50c-31-16-43-13-136,38c-113,60-192,138-240,235c-63,130-67,236-11,330
			c80,132,244,155,357,48c37-36,39-41,39-100c0-89-20-107-140-125C4874.9,5460.6,4878.9,5418.6,4900.9,5394.6z M4111.3,6150.2
			c-15.4-33.1-153.5-196.6-168.4-193.6c-4.7,1-7.6,8.5-17,83c-20,159,16,256,139,380c49.2,49.6,70.2,83.6,87,77
			c8.8-3.4,13-15.7,15-32C4180.1,6358,4199.1,6339.1,4111.3,6150.2z M4394.1,7507.4c-30.8,5.7-98.3,5.9-154.2,50.5
			c-21.1,16.8-70.2,73.2-95.3,141.5c-7,19-12.4,59.8-15.4,96.8c-5.5,57.9,8.8,92.7,28.4,105.2c28.3,18.1,77.1-10.4,101.4-24.8
			c14.1-8.4,177.1-108.3,165-270C4420.8,7564.5,4406.7,7530.6,4394.1,7507.4z M4006.9,4156.6c-24,17-49,30-56,30c-25,0,11,17,63,29
			c163,39,486,148,570,191c30,16,82,41,114,56c32,15,71,38,85,49c39,33,66,41,76,25c8-13-40-148-62-172c-42-47-237-126-448-183
			c-27-7-84-23-125-34C4115.9,4117.6,4061.9,4119.6,4006.9,4156.6z M4438.9,4000.6c-58,7-113,22-135,36c-13,9-13,11,0,20
			c8,6,40,17,70,26c134,38,229,70,285,95c66,31,95,36,95,16c0-27-116-127-190-163C4497.9,3998.6,4482.9,3995.6,4438.9,4000.6z
			 M4643.9,3895.6c0,5,21,29,47,53c94,86,116,114,154,194c52,111,85,213,115,357c15,67,30,127,34,132c4,6,15,33,23,60
			c21,70,89,214,128,272c47,68,115,138,184,191c90,68,177,160,207,222c36,71,54,195,39,273c-16,86-65,173-141,250
			c-71,70-143,110-415,227c-161,70-271,157-355,280c-66,98-85,158-84,280c1,92,5,114,31,182c39,100,81,163,147,226
			c95,90,230,142,367,142c94,0,156-17,255-69c157-81,241-212,251-391c5-74,3-92-16-128c-48-95-128-152-212-152c-90,0-185,76-196,157
			c-7,53,10,81,63,104c34,16,44,25,44,44c0,29-26,45-74,45c-144,0-208-148-131-305c71-146,282-210,435-132c30,16,67,39,81,51
			c109,95,155,276,113,440c-28,110-61,165-153,257c-80,79-94,88-189,127c-56,23-112,42-125,42c-12,0-29,5-37,10c-23,15,40,13,136-4
			c202-36,382-128,568-290c175-153,329-418,343-591c7-79,8-79-62,10c-46,58-49,62-132,138c-73,66-107,74-124,30
			c-31-79-59-221-59-297c0-188,65-299,269-456c79-62,81-68,51-154c-79-232-294-479-559-643c-55-35-103-63-106-63c-16,0,1,31,44,83
			c58,70,131,207,161,302c47,150,22,369-58,519c-71,131-170,201-532,374c-186,90-261,140-315,213c-52,70-69,128-63,216
			c7,129,77,229,206,294c60,31,74,34,152,34c80,0,89-2,143-35c107-64,167-153,167-245c0-64-13-82-86-120c-33-16-59-37-59-45
			c0-21,68-44,108-36c54,10,116,61,139,114c19,43,20,54,10,122c-13,92-42,147-121,228c-116,118-290,171-422,128
			c-99-33-144-61-220-136c-85-84-121-148-143-253c-46-224,78-426,334-545c350-162,401-188,457-234c68-56,132-140,167-217
			c25-56,27-72,27-179c0-201-35-285-187-447c-146-155-222-237-247-270c-44-55-108-160-114-185c-3-14-16-46-29-71
			c-12-25-32-81-44-125c-12-43-30-108-41-144c-10-36-23-83-28-105c-13-49-89-201-126-249C4787.9,3936.6,4643.9,3857.6,4643.9,3895.6
			z M5092.2,7699.8c-25.2-4.1-54.6,55.2-74.3,94.8c-11,22.1-17.7,35.7-22.7,56.4c-4.7,19.5-5.8,40-5.3,70.6c0,88,16,136,66,203
			c44,59,56,59,105-2c11.3-14,29.4-38.5,43.5-76.9c0,0,0,0,0,0c12.1-48.4,17.4-89.8,17.5-109.1c0,0,0.6-97.1-117.8-229.3
			C5102.1,7704.9,5098.2,7700.7,5092.2,7699.8z M5802.9,7526.6c-13,0-11,117,2,164c13,47,65,127,100,154c69,54,141.5,76.8,154,42
			c0,0,53-125.9-6.4-230.3S5802.9,7526.6,5802.9,7526.6z M6293.9,6052.6c-13-61-30-78-58-53c-9,8-34,22-54,32c-21,9-63,44-93,77
			c-85,92-98,158-64,336l10,52l56-47c30-26,79-74,109-107C6288.9,6244.6,6316.9,6159.6,6293.9,6052.6z M5229.9,3908.6
			c-9-9-241-16-262-8c-12,5-10,14,10,55c23,44,49,124,77,231c5,19,13,75,19,124c9,80,25,134,36,124c2-3,8-56,14-119
			c12-137,39-249,81-335C5222.9,3944.6,5233.9,3912.6,5229.9,3908.6z M5511.9,3900.6c-2-2-33,16-69,40c-138,93-197,193-212,359
			c-3,26,0,47,5,47s18-21,30-47c104-243,108-250,169-303C5489.9,3948.6,5520.9,3910.6,5511.9,3900.6z M5798.9,3992.6l-95-18l-47,28
			c-27,16-64,36-83,45c-48,23-140,125-140,155c0,19,0,19,93-26c46-22,148-60,228-86c79-25,148-50,154-56
			C5924.9,4020.6,5901.9,4011.6,5798.9,3992.6z M6141.9,4113.6c-36-9-185,18-261,47c-34,13-105,36-157,50c-141,38-304,122-363,186
			c-26,28-47,54-47,58c0,4-11,30-25,57c-41,83-29,110,24,58c81-80,240-150,641-281c118-39,236-76,263-83c26-6,47-15,47-19
			C6263.9,4176.6,6171.9,4120.6,6141.9,4113.6z M6321.9,4300.6c-24,8-72,22-108,31c-36,9-117,32-180,51c-63,20-144,44-180,55
			c-36,11-114,41-175,66c-253,105-371,155-379,163c-12,12,1,69,24,108c23,38,20,38,81-6c48-35,108-63,239-112c41-15,125-48,185-72
			c61-24,180-66,265-92c285-87,324-101,355-121C6535.9,4312.6,6442.9,4260.6,6321.9,4300.6z M7327.9,5471.6c-67-202-192-457-273-555
			c-21-25-52-67-71-95c-43-65-154-200-199-245c-20-19-50-52-68-73c-26-31-37-37-71-37c-133,0-572,135-927,285c-55,23-125,50-155,60
			c-76,25-140,54-140,64c0,16,25,28,95,45c102,24,303,127,396,202c43,34,87,68,99,74c11,6,31,28,44,48c13,20,66,80,118,133
			c84,87,103,102,198,148c58,28,113,51,122,51c10,0,29-23,49-61c68-127,153-191,287-219c73-15,132-10,266,21l98,23l-5,38
			c-3,21-26,80-51,132c-68,141-156,212-294,238c-118,22-204,3-466-101c-43-18-80-30-82-29c-2,2,21,40,51,83c30,44,80,123,112,175
			c71,118,120,185,167,230l37,35l142,6c153,7,185,15,262,64c126,81,205,224,205,371v62l-63,11c-79,14-208,14-267,0
			c-151-35-256-144-316-329c-26-83-35-97-124-207c-31-37-66-84-78-103l-22-35v42c0,23,5,76,11,118c14,91-1,280-31,395
			c-12,47-19,106-19,160c0,83,11,185,20,194c2,3,46,11,98,20c113,18,184,51,245,114c82,83,126,205,126,348v82l-65,7
			c-160,17-323-38-409-138c-84-99-115-195-117-366c-1-53-4-107-8-121c-6-23-10-20-41,38c-41,78-133,186-238,281
			c-84,77-127,141-138,207l-6,40l60,12c117,24,230,121,274,235c20,53,23,80,23,187c-1,89-5,134-15,155c-14,28-20,30-73,33
			c-187,10-371-139-407-329c-18-96-12-195,21-311c7-26,11-50,8-53c-3-2-35,11-71,30c-90,48-269,95-392,102l-98,6l5,34
			c3,19,25,62,48,96c24,34,60,99,82,145c86,184,51,382-90,509c-69,62-94,70-137,43c-66-40-120-113-166-225c-22-53-25-184-6-249
			c19-64,74-161,132-231c30-37,35-50,29-72c-11-44-24-53-76-53c-103,0-298-56-418-121c-40-22-76-37-79-35c-2,3,2,23,11,44
			c24,59,40,193,35,290c-4,74-9,97-39,156c-69,139-211,226-371,226h-57l-15-51c-69-231,13-447,206-541c31-15,73-30,96-34l40-6
			l-10-37c-23-84-59-133-201-274c-92-91-158-165-183-207l-39-65l-6,160c-10,230-40,309-154,405c-75,61-151,81-300,78l-120-3l-3-45
			c-10-134,39-288,116-367c78-80,149-111,293-128l57-7l6-44c19-138,18-229-2-305c-42-158-50-328-27-564l6-60l-30,47
			c-17,26-42,69-57,96c-15,28-47,77-71,109c-30,40-51,84-69,143c-57,188-139,279-293,326c-62,19-201,17-281-4l-65-17l1-65
			c1-84,25-158,76-238c43-66,93-107,175-144c40-18,72-22,196-26c137-4,149-6,163-26c8-11,33-46,55-76c22-30,56-84,75-120
			c19-36,64-99,100-140c74-83,124-149,124-162c0-4-5-8-11-8c-16,0-173,57-234,85c-79,36-149,48-244,42c-173-10-269-74-346-230
			c-25-51-48-108-51-128c-6-35-5-36,42-56c153-66,325-64,440,3c57,33,150,136,165,183c7,20,17,39,22,43c20,12,71-3,176-54
			c101-48,108-54,292-235c110-109,212-200,246-221c114-68,219-120,268-131c28-7,67-17,89-22l39-10l-34-23c-19-12-72-35-119-51
			c-47-16-116-42-155-58c-38-16-128-53-200-82c-71-29-170-70-220-90c-121-50-341-110-476-129l-45-7l-90,92c-49,51-100,104-114,118
			c-14,14-52,62-84,106c-32,44-78,105-101,136c-79,105-223,395-286,578c-108,314-128,743-53,1091c34,154,104,358,174,507
			c94,197,336,542,466,664c186,174,490,375,669,444c39,15,95,37,125,50c30,13,91,33,135,45c335,91,407,100,750,95
			c197-2,276-8,375-24c200-34,506-136,644-214c165-94,256-150,355-221c137-97,307-260,388-371c12-17,38-52,59-80
			c162-214,271-442,369-770c65-220,85-355,85-587C7433.9,5896.6,7399.9,5685.6,7327.9,5471.6z M6636.1,5629.9
			c1.3,2.7,4.8,7.9,12.8,13.7c26,19,135,11,206-17c76-29,110-56,155-124c12.2-18.4,39.1-64.9,32.4-82.5
			C7007.1,5327.3,6584.5,5446.1,6636.1,5629.9z M6993.9,5446.6 M6738.4,6279.2c0,0-1,27.2,0.5,35.4c19,103,176.5,211.6,250,241
			c73.5,29.4,158-8,158-8s2.1-22.2-2-32C7120.5,6250.4,6744.2,6255.3,6738.4,6279.2z M6445,7036.2l-66.1-14.6l-3,40
			c-5,67,49,164,122,220c78,60,219,96,232,60c6.3-17.5,7-37.3,0.2-69.4c0,0-12.5-59.3-54.7-108.1C6595,7071,6445,7036.2,6445,7036.2
			z M3722.9,7036.6c-69,22-198.8,112.9-218,182c-20,59-28,128-15,140c7,7,70,0,114-14c57-18,123-54,152-85c31-33,73.3-124.1,77-158
			s-2.7-84.4-5.2-84.4c-0.2,0-0.3,0.2-0.4,0.4C3792.6,7024,3791.9,7014.6,3722.9,7036.6z M3748.9,7076.6 M3069.9,6518.6
			c-2.4,7-8.4,24.3-0.3,34c4.7,5.6,12.4,6.1,16.3,7c50,11,164,0,210-21c93-41,164-117,188-201l9-31c-87.2,10.1-200.6,1.8-261.6,30.3
			C3170.3,6365.4,3084.5,6476.1,3069.9,6518.6z M3173.9,5431.6c5.1,22.7,31.1,126.8,131,190c0,0,93.6,59.1,264,26
			c3.1-0.6,9.2-1.9,13.6-6.8c23.9-26.5-37-116.6-40.2-121.2C3463.4,5404.4,3223.4,5426.3,3173.9,5431.6z"/>
		<path class="st18" d="M5553.9,8103.6c-38-19-54-60-40-102c13-41,35-55,83-55c42,0,67,26,74,77c4,31,1,42-19,60
			C5620.9,8112.6,5584.9,8119.6,5553.9,8103.6z"/>
		<path class="st18" d="M4577.9,8081.6c-51-51-12-135,62-135c65,0,100,65,67,122c-16,28-26,33-61,36
			C4611.9,8107.6,4598.9,8102.6,4577.9,8081.6z"/>
		<path class="st18" d="M6401.9,7750.6c-76-40-60-147,23-160c28-5,41-1,67,21c53,44,41,114-23,141
			C6428.9,7769.6,6434.9,7769.6,6401.9,7750.6z"/>
		<path class="st18" d="M3751.9,7739.6c-51-32-61-86-24-130c32-37,99-39,127-4c34,42,19,119-28,140
			C3794.9,7760.6,3783.9,7759.6,3751.9,7739.6z"/>
		<path class="st18" d="M3256.9,6976.6c-12-5-29-21-39-35c-14-22-15-32-6-64c13-43,45-65,93-63c40,1,68,28,75,73
			C3390.9,6950.6,3317.9,7002.6,3256.9,6976.6z"/>
		<path class="st18" d="M6903.9,6949.6c-27-22-31-31-26-57c9-45,43-76,83-76c72,0,111,90,60,138
			C6988.9,6984.6,6942.9,6982.6,6903.9,6949.6z"/>
		<path class="st18" d="M6551.9,5274.6c-18-12-175,1-220,19c-61,24-44,80,28,93c88,15,197-24,202-74
			C6563.9,5296.6,6559.9,5279.6,6551.9,5274.6z"/>
		<path class="st18" d="M3932.9,5310.6c-14-8-199-53-223-54c-15,0-56,33-56,46c0,26,41,57,100,75c49,15,152,10,172-8
			S3949.9,5321.6,3932.9,5310.6z"/>
		<path class="st18" d="M3503.9,5101.6c-22-11-64-15-164-15c-126,0-136,1-146,20c-13,24-6,53,16,71c10,8,59,16,122,19
			c189,12,180,12,198-15C3549.9,5150.6,3540.9,5120.6,3503.9,5101.6z"/>
		<path class="st18" d="M7042.9,5118.6c-14-41-36-47-179-47c-139,1-208,17-216,51c-9,34,3,72,24,78c9,2,40,3,67,0c28-2,103-7,167-10
			C7042.9,5182.6,7061.9,5172.6,7042.9,5118.6z"/>
		<path class="st18" d="M7203.9,3907.6c-74-39-102-145-57-212c61-91,151-104,219-30c35,37,38,45,38,100c0,54-4,64-32,97
			c-33,37-81,64-115,64C7246.9,3926.6,7222.9,3918.6,7203.9,3907.6z"/>
		<path class="st18" d="M2847.9,3846.6c-28-11-54-48-54-78c0-34,52-82,87-82c64,0,99,94,53,140c-11,11-24,20-29,20s-15,2-23,4
			C2874.9,3853.6,2858.9,3851.6,2847.9,3846.6z"/>
		<g id="text">
			<path class="st18" d="M6560.9,3179.6l-27-28h-298c-163,0-319,2-347,5c-48,5-50,4-53-20c-2-21,3-28,32-38c20-7,45-25,56-39
				c20-26,21-35,18-421l-3-394l-26-21c-15-12-40-29-57-39c-21-11-29-22-26-35c5-17,20-18,215-18h209v27c0,18-7,29-19,33
				c-11,3-34,22-50,41l-31,35v144v145h109c118,0,141-9,141-54c0-12,5-27,12-34c14-14,54-16,62-4c2,4,6,82,7,171l2,164l-33,14
				c-36,14-50,7-50-28c0-9-8-27-18-39c-17-20-29-23-125-27l-107-4v99c0,55-3,114-6,131l-6,31h164h164l48-55c74-86,81-80,91,78
				c12,198,12,201-5,205C6595.9,3205.6,6576.9,3194.6,6560.9,3179.6z"/>
			<path class="st18" d="M7667.9,3181.6c-16-14-33-26-39-26c-5-1-161-2-345-3l-335-1l-3-23c-2-14,3-24,15-29c10-3,33-17,51-30l32-24
				v-393c0-379-1-394-20-419c-11-14-36-31-55-37c-28-9-35-17-35-38v-27l355,3c347,4,357,3,396-18c23-11,44-19,46-16c3,3,8,42,10,87
				c3,46,13,115,23,155c18,78,14,94-26,94c-15,0-32-15-54-50c-18-28-41-55-52-61c-10-5-98-11-196-12l-177-2l-3,125l-3,125l128-2
				c70,0,132-2,136-2c4-1,17-21,28-46c21-47,37-55,63-29c13,13,16,42,16,162c0,81-4,152-8,158s-21,15-38,18c-29,7-32,5-38-25
				c-12-64-25-69-163-69h-123v130v130h58c33,0,114-3,182-7l122-6l30-49c16-26,36-48,43-48c26,0,38,29,32,83c-3,28-2,91,2,139
				c3,48,5,92,3,98C7719.9,3213.6,7698.9,3207.6,7667.9,3181.6z"/>
			<path class="st18" d="M2765.9,3152.6c-73-18-142-63-179-120c-66-97-72-196-18-304c46-92,86-118,271-177c151-49,197-77,209-128
				c9-36-21-87-65-110c-27-14-53-17-115-15c-109,4-159,30-225,114c-28,36-56,64-62,62c-11-4-88-212-88-238c0-9,29-28,73-47
				c143-64,153-66,297-67c126-1,139,1,190,25c237,113,276,389,73,522c-30,20-97,50-151,68c-190,63-232,90-232,152c0,64,46,97,138,97
				c83,0,145-24,195-76c23-24,47-44,53-44s20,21,32,48c12,26,40,67,62,92s40,48,40,51c0,10-159,76-226,93
				C2964.9,3169.6,2839.9,3169.6,2765.9,3152.6z"/>
			<path class="st18" d="M5283.9,3155.6c-41-5-119-7-172-4l-98,6v-25c0-17,9-30,29-42c61-36,61-34,61-459v-387l-29-26
				c-16-15-38-34-50-42c-13-9-20-21-17-30c5-13,38-15,209-14c197,0,202,1,202,21c0,12-17,34-45,55l-45,34l-8,369c-4,204-5,384-2,401
				c6,35,27,62,68,89c19,12,27,25,25,39C5407.9,3165.6,5388.9,3167.6,5283.9,3155.6z"/>
			<path class="st18" d="M3889.9,3139.6c-6-15,12-34,58-62c19-12,37-33,40-47c4-15,7-195,7-401c1-415,3-399-66-438
				c-26-14-40-29-41-43c-1-20,0-20,345-19c345,2,346,2,375-20c49-39,53-33,61,80c4,56,11,131,15,167c10,70,4,85-35,92
				c-32,6-40,0-54-43c-6-20-25-49-42-65l-30-29l-160-3l-159-4v365v365l30,31c17,16,39,33,51,36c14,5,19,14,17,28c-3,22-6,22-205,22
				C3945.9,3151.6,3892.9,3148.6,3889.9,3139.6z"/>
			<path class="st18" d="M3678.9,1782.6c-54-23-85-70-85-127c0-93,55-149,144-149c39,0,53,5,78,30c31,32,33,47,5,64c-12,8-21,6-35-7
				c-27-24-69-21-97,8c-61,60,12,156,83,109c25-16,26-16,49,10c13,15,23,31,23,35c0,13-76,41-108,41
				C3720.9,1795.6,3694.9,1789.6,3678.9,1782.6z"/>
			<path class="st18" d="M4067.9,1777.6c-94-57-100-172-14-245c72-60,201-7,230,94C4316.9,1741.6,4172.9,1841.6,4067.9,1777.6z
				 M4172.9,1711.6c36-18,46-56,27-94c-26-49-74-55-111-15c-33,36-32,77,1,103C4121.9,1730.6,4135.9,1731.6,4172.9,1711.6z"/>
			<path class="st18" d="M4459.9,1735.6c-9-92-7-188,4-210c6-11,21-19,35-19c24,0,25,2,25,78l1,77l24-46c34-65,51-77,75-53
				c11,10,31,41,44,68l25,50l3-85l3-84h30h30l3,143l3,142h-38c-37,0-39-2-78-75c-22-41-42-75-45-75s-13,22-23,48
				c-24,68-52,102-86,102C4467.9,1796.6,4466.9,1794.6,4459.9,1735.6z"/>
			<path class="st18" d="M5388.9,1775.6c-4-12-25-60-47-106c-22-47-42-102-45-124l-6-39h37c33,0,36,2,36,29c0,32,14,41,65,41
				c49,0,65-9,65-36c0-22,4-24,45-24c29,0,45,4,45,13c0,6-28,69-62,139c-61,122-64,127-95,127
				C5402.9,1796.6,5393.9,1791.6,5388.9,1775.6z M5452.9,1666.6c8-25,7-32-4-37c-37-13-61,27-33,55
				C5433.9,1702.6,5440.9,1699.6,5452.9,1666.6z"/>
			<path class="st18" d="M5744.9,1667.6c2-71,7-132,10-135c4-4,20-11,38-16l31-9l-5,82l-6,82l73-78c47-49,81-77,94-77
				c19,0,22,7,28,92c3,50,6,113,6,140c0,47-1,48-30,48h-30v-75c0-41-4-75-9-75c-6,0-30,27-56,60c-54,71-80,90-118,90h-29
				L5744.9,1667.6z"/>
			<path class="st18" d="M4948.9,1724.6c-3-35-5-97-3-138c3-73,4-75,31-78c25-3,27-1,27,37v40l62,7c114,13,154,90,84,160
				c-33,33-36,34-114,34h-80L4948.9,1724.6z M5087.9,1707.6c27-30,5-63-37-59c-29,3-32,6-35,41s-2,37,26,37
				C5057.9,1726.6,5078.9,1717.6,5087.9,1707.6z"/>
			<path class="st18" d="M2985.9,1697.6c-276-6-295-7-308-25c-19-26-18-43,4-54c9-5,160-12,334-15c344-7,348-7,348,47
				C3363.9,1702.6,3351.9,1704.6,2985.9,1697.6z"/>
			<path class="st18" d="M6863.9,1699.6c-36-15-41-66-7-87c33-21,583-8,597,14s12,36-6,54c-13,14-50,16-248,16c-128,0-253,2-277,5
				C6898.9,1703.6,6871.9,1703.6,6863.9,1699.6z"/>
			<path class="st18" d="M6216.2,1721.1c21.4-25.5,36.8-44,55.2-66c35.7-41.7-14.6-138.6,36.6-147.1c51.2-8.5,59.8,75.8,79,127.2
				c10.8,30.3,23.7,68.8,28.1,85.5c7.6,29.2,5.3,82.4-25.7,85c-30.9,2.6-29.7-74.6-34.3-87.3s-15.8-45.6-20.4-44.4
				c-5.6,1.4-23.5,24-42.3,50.7c-38.7,57.1-82.4,93.7-92.5,72.2S6194.8,1746.6,6216.2,1721.1z"/>
		</g>
	</g>
</g>
<g id="Лого_white" transform="translate(0.000000,1024.000000) scale(0.100000,-0.100000)" class="st1">
	<path class="st19" d="M7735.9,6538.6c-77,450-271,870-575,1248c-77,95-264,282-342,341c-150,115-373,258-504,324
		c-171,86-498,197-691,234c-167,33-523,56-675,45c-85-7-204-24-344-50c-622-117-1219-481-1597-974c-155-202-310-479-384-685
		c-86-243-126-431-151-715c-24-271,15-652,88-869c165-494,415-881,776-1202c45-41,84-76,87-79c13-14,253-181,311-217
		c241-150,555-268,894-334c231-46,473-59,695-40c331,29,738,140,1004,273c141,71,261,147,416,265c149,112,200,158,311,279
		c135,146,358,460,428,604c18,36,41,79,50,95c68,113,169,444,208,680C7767.9,5928.6,7765.9,6362.6,7735.9,6538.6z M7577.9,5536.6
		c-22-90-95-293-141-390c-185-394-472-744-809-986c-207-149-308-205-524-292c-199-80-353-121-630-168c-144-24-513-30-671-11
		c-153,19-446,92-592,147c-140,52-351,156-452,221c-441,287-740,619-950,1054c-115,239-168,404-204,641c-108,693,94,1406,559,1979
		c105,129,248,256,473,423c127,94,376,222,587,303c210,80,388,122,595,139c72,5,150,12,175,14c88,8,377-4,490-20
		c263-36,664-167,830-269c19-12,75-43,124-69c104-55,285-187,406-295c109-97,91-78,201-211c301-362,481-732,563-1157
		C7676.9,6231.6,7666.9,5897.6,7577.9,5536.6z"/>
	<path class="st19" d="M7078.9,7526.6c-83,120-236,292-340,382c-218,190-575,388-859,478c-299,94-581,132-876,119
		c-366-17-675-98-1005-263c-261-131-452-271-656-481c-190-195-403-538-512-825c-93-244-136-472-144-765c-4-182-2-229,16-350
		c40-268,97-448,216-685c170-339,411-634,679-832c50-37,118-87,151-112c175-129,485-265,745-327c231-55,322-69,494-78
		c220-11,358-1,581,44c376,75,613,166,860,331c371,247,511,385,741,732c146,219,236,423,302,682c55,217,72,340,72,523
		C7543.9,6621.6,7399.9,7063.6,7078.9,7526.6z M3722.9,4330.6c-21,14-21,14,7,29c16,8,85,33,154,56c69,23,134,46,145,52
		c11,5,70,25,130,43c133,41,292,101,400,151c44,20,104,45,133,56c70,24,146,66,173,95c26,27,59,32,59,8c0-9-6-28-14-42
		c-8-15-24-48-36-75c-16-34-34-54-63-71c-112-65-250-129-327-153c-47-15-132-44-190-65c-102-38-258-81-408-113
		C3808.9,4285.6,3778.9,4291.6,3722.9,4330.6z M4900.9,5394.6c12-13,31-18,71-18c71,0,132,34,167,94c33,56,35,155,5,219
		c-27,57-102,129-170,164c-48,24-66,28-141,27c-72,0-94-4-141-27c-74-36-149-117-178-192c-19-48-24-79-24-160c-1-157,32-236,167-402
		c54-66,62-80,39-69c-149,71-190,94-247,138c-85,64-242,222-311,313c-47,63-175,305-173,330c0,6,38,41,85,79c91,73,172,163,204,227
		c58,113,63,259,16,443c-15,54-26,100-26,102c0,2-8,4-19,4c-22,0-134-82-219-161c-39.4-37.5-105.6-128.3-105.6-128.3
		s5.9,30.9,28.6,87.3c4,9,18,52,31,95c31,96,81,201,123,259c55,75,227,243,303,295c97,67,248,150,327,180c90,34,316,70,270,43
		c-9-5-49-21-90-36c-203-72-301-164-380-353c-46-109-58-172-59-291c0-127,17-198,71-298c85-158,161-217,460-358
		c324-153,367-187,429-339c61-149,2-310-150-412c-89-60-126-70-203-54c-126,26-241,120-271,221c-23,76-20,106,14,178
		c17,35,30,68,30,73c0,18-58,9-86-13c-38-30-51-46-70-88c-23-52-13-155,23-227c29-58,118-154,165-179c15-8,44-25,64-39
		c20-14,54-30,75-35c42-12,51-33,20-50c-31-16-43-13-136,38c-113,60-192,138-240,235c-63,130-67,236-11,330c80,132,244,155,357,48
		c37-36,39-41,39-100c0-89-20-107-140-125C4874.9,5460.6,4878.9,5418.6,4900.9,5394.6z M4111.3,6150.2
		c-15.4-33.1-153.5-196.6-168.4-193.6c-4.7,1-7.6,8.5-17,83c-20,159,16,256,139,380c49.2,49.6,70.2,83.6,87,77
		c8.8-3.4,13-15.7,15-32C4180.1,6358,4199.1,6339.1,4111.3,6150.2z M4394.1,7507.4c-30.8,5.7-98.3,5.9-154.2,50.5
		c-21.1,16.8-70.2,73.2-95.3,141.5c-7,19-12.4,59.8-15.4,96.8c-5.5,57.9,8.8,92.7,28.4,105.2c28.3,18.1,77.1-10.4,101.4-24.8
		c14.1-8.4,177.1-108.3,165-270C4420.8,7564.5,4406.7,7530.6,4394.1,7507.4z M4006.9,4156.6c-24,17-49,30-56,30c-25,0,11,17,63,29
		c163,39,486,148,570,191c30,16,82,41,114,56c32,15,71,38,85,49c39,33,66,41,76,25c8-13-40-148-62-172c-42-47-237-126-448-183
		c-27-7-84-23-125-34C4115.9,4117.6,4061.9,4119.6,4006.9,4156.6z M4438.9,4000.6c-58,7-113,22-135,36c-13,9-13,11,0,20
		c8,6,40,17,70,26c134,38,229,70,285,95c66,31,95,36,95,16c0-27-116-127-190-163C4497.9,3998.6,4482.9,3995.6,4438.9,4000.6z
		 M4643.9,3895.6c0,5,21,29,47,53c94,86,116,114,154,194c52,111,85,213,115,357c15,67,30,127,34,132c4,6,15,33,23,60
		c21,70,89,214,128,272c47,68,115,138,184,191c90,68,177,160,207,222c36,71,54,195,39,273c-16,86-65,173-141,250
		c-71,70-143,110-415,227c-161,70-271,157-355,280c-66,98-85,158-84,280c1,92,5,114,31,182c39,100,81,163,147,226
		c95,90,230,142,367,142c94,0,156-17,255-69c157-81,241-212,251-391c5-74,3-92-16-128c-48-95-128-152-212-152c-90,0-185,76-196,157
		c-7,53,10,81,63,104c34,16,44,25,44,44c0,29-26,45-74,45c-144,0-208-148-131-305c71-146,282-210,435-132c30,16,67,39,81,51
		c109,95,155,276,113,440c-28,110-61,165-153,257c-80,79-94,88-189,127c-56,23-112,42-125,42c-12,0-29,5-37,10c-23,15,40,13,136-4
		c202-36,382-128,568-290c175-153,329-418,343-591c7-79,8-79-62,10c-46,58-49,62-132,138c-73,66-107,74-124,30c-31-79-59-221-59-297
		c0-188,65-299,269-456c79-62,81-68,51-154c-79-232-294-479-559-643c-55-35-103-63-106-63c-16,0,1,31,44,83c58,70,131,207,161,302
		c47,150,22,369-58,519c-71,131-170,201-532,374c-186,90-261,140-315,213c-52,70-69,128-63,216c7,129,77,229,206,294
		c60,31,74,34,152,34c80,0,89-2,143-35c107-64,167-153,167-245c0-64-13-82-86-120c-33-16-59-37-59-45c0-21,68-44,108-36
		c54,10,116,61,139,114c19,43,20,54,10,122c-13,92-42,147-121,228c-116,118-290,171-422,128c-99-33-144-61-220-136
		c-85-84-121-148-143-253c-46-224,78-426,334-545c350-162,401-188,457-234c68-56,132-140,167-217c25-56,27-72,27-179
		c0-201-35-285-187-447c-146-155-222-237-247-270c-44-55-108-160-114-185c-3-14-16-46-29-71c-12-25-32-81-44-125
		c-12-43-30-108-41-144c-10-36-23-83-28-105c-13-49-89-201-126-249C4787.9,3936.6,4643.9,3857.6,4643.9,3895.6z M5092.2,7699.8
		c-25.2-4.1-54.6,55.2-74.3,94.8c-11,22.1-17.7,35.7-22.7,56.4c-4.7,19.5-5.8,40-5.3,70.6c0,88,16,136,66,203c44,59,56,59,105-2
		c11.3-14,29.4-38.5,43.5-76.9c0,0,0,0,0,0c12.1-48.4,17.4-89.8,17.5-109.1c0,0,0.6-97.1-117.8-229.3
		C5102.1,7704.9,5098.2,7700.7,5092.2,7699.8z M5802.9,7526.6c-13,0-11,117,2,164c13,47,65,127,100,154c69,54,141.5,76.8,154,42
		c0,0,53-125.9-6.4-230.3S5802.9,7526.6,5802.9,7526.6z M6293.9,6052.6c-13-61-30-78-58-53c-9,8-34,22-54,32c-21,9-63,44-93,77
		c-85,92-98,158-64,336l10,52l56-47c30-26,79-74,109-107C6288.9,6244.6,6316.9,6159.6,6293.9,6052.6z M5229.9,3908.6
		c-9-9-241-16-262-8c-12,5-10,14,10,55c23,44,49,124,77,231c5,19,13,75,19,124c9,80,25,134,36,124c2-3,8-56,14-119
		c12-137,39-249,81-335C5222.9,3944.6,5233.9,3912.6,5229.9,3908.6z M5511.9,3900.6c-2-2-33,16-69,40c-138,93-197,193-212,359
		c-3,26,0,47,5,47s18-21,30-47c104-243,108-250,169-303C5489.9,3948.6,5520.9,3910.6,5511.9,3900.6z M5798.9,3992.6l-95-18l-47,28
		c-27,16-64,36-83,45c-48,23-140,125-140,155c0,19,0,19,93-26c46-22,148-60,228-86c79-25,148-50,154-56
		C5924.9,4020.6,5901.9,4011.6,5798.9,3992.6z M6141.9,4113.6c-36-9-185,18-261,47c-34,13-105,36-157,50c-141,38-304,122-363,186
		c-26,28-47,54-47,58c0,4-11,30-25,57c-41,83-29,110,24,58c81-80,240-150,641-281c118-39,236-76,263-83c26-6,47-15,47-19
		C6263.9,4176.6,6171.9,4120.6,6141.9,4113.6z M6321.9,4300.6c-24,8-72,22-108,31c-36,9-117,32-180,51c-63,20-144,44-180,55
		c-36,11-114,41-175,66c-253,105-371,155-379,163c-12,12,1,69,24,108c23,38,20,38,81-6c48-35,108-63,239-112c41-15,125-48,185-72
		c61-24,180-66,265-92c285-87,324-101,355-121C6535.9,4312.6,6442.9,4260.6,6321.9,4300.6z M7327.9,5471.6c-67-202-192-457-273-555
		c-21-25-52-67-71-95c-43-65-154-200-199-245c-20-19-50-52-68-73c-26-31-37-37-71-37c-133,0-572,135-927,285c-55,23-125,50-155,60
		c-76,25-140,54-140,64c0,16,25,28,95,45c102,24,303,127,396,202c43,34,87,68,99,74c11,6,31,28,44,48c13,20,66,80,118,133
		c84,87,103,102,198,148c58,28,113,51,122,51c10,0,29-23,49-61c68-127,153-191,287-219c73-15,132-10,266,21l98,23l-5,38
		c-3,21-26,80-51,132c-68,141-156,212-294,238c-118,22-204,3-466-101c-43-18-80-30-82-29c-2,2,21,40,51,83c30,44,80,123,112,175
		c71,118,120,185,167,230l37,35l142,6c153,7,185,15,262,64c126,81,205,224,205,371v62l-63,11c-79,14-208,14-267,0
		c-151-35-256-144-316-329c-26-83-35-97-124-207c-31-37-66-84-78-103l-22-35v42c0,23,5,76,11,118c14,91-1,280-31,395
		c-12,47-19,106-19,160c0,83,11,185,20,194c2,3,46,11,98,20c113,18,184,51,245,114c82,83,126,205,126,348v82l-65,7
		c-160,17-323-38-409-138c-84-99-115-195-117-366c-1-53-4-107-8-121c-6-23-10-20-41,38c-41,78-133,186-238,281
		c-84,77-127,141-138,207l-6,40l60,12c117,24,230,121,274,235c20,53,23,80,23,187c-1,89-5,134-15,155c-14,28-20,30-73,33
		c-187,10-371-139-407-329c-18-96-12-195,21-311c7-26,11-50,8-53c-3-2-35,11-71,30c-90,48-269,95-392,102l-98,6l5,34
		c3,19,25,62,48,96c24,34,60,99,82,145c86,184,51,382-90,509c-69,62-94,70-137,43c-66-40-120-113-166-225c-22-53-25-184-6-249
		c19-64,74-161,132-231c30-37,35-50,29-72c-11-44-24-53-76-53c-103,0-298-56-418-121c-40-22-76-37-79-35c-2,3,2,23,11,44
		c24,59,40,193,35,290c-4,74-9,97-39,156c-69,139-211,226-371,226h-57l-15-51c-69-231,13-447,206-541c31-15,73-30,96-34l40-6l-10-37
		c-23-84-59-133-201-274c-92-91-158-165-183-207l-39-65l-6,160c-10,230-40,309-154,405c-75,61-151,81-300,78l-120-3l-3-45
		c-10-134,39-288,116-367c78-80,149-111,293-128l57-7l6-44c19-138,18-229-2-305c-42-158-50-328-27-564l6-60l-30,47
		c-17,26-42,69-57,96c-15,28-47,77-71,109c-30,40-51,84-69,143c-57,188-139,279-293,326c-62,19-201,17-281-4l-65-17l1-65
		c1-84,25-158,76-238c43-66,93-107,175-144c40-18,72-22,196-26c137-4,149-6,163-26c8-11,33-46,55-76c22-30,56-84,75-120
		c19-36,64-99,100-140c74-83,124-149,124-162c0-4-5-8-11-8c-16,0-173,57-234,85c-79,36-149,48-244,42c-173-10-269-74-346-230
		c-25-51-48-108-51-128c-6-35-5-36,42-56c153-66,325-64,440,3c57,33,150,136,165,183c7,20,17,39,22,43c20,12,71-3,176-54
		c101-48,108-54,292-235c110-109,212-200,246-221c114-68,219-120,268-131c28-7,67-17,89-22l39-10l-34-23c-19-12-72-35-119-51
		c-47-16-116-42-155-58c-38-16-128-53-200-82c-71-29-170-70-220-90c-121-50-341-110-476-129l-45-7l-90,92c-49,51-100,104-114,118
		c-14,14-52,62-84,106c-32,44-78,105-101,136c-79,105-223,395-286,578c-108,314-128,743-53,1091c34,154,104,358,174,507
		c94,197,336,542,466,664c186,174,490,375,669,444c39,15,95,37,125,50c30,13,91,33,135,45c335,91,407,100,750,95c197-2,276-8,375-24
		c200-34,506-136,644-214c165-94,256-150,355-221c137-97,307-260,388-371c12-17,38-52,59-80c162-214,271-442,369-770
		c65-220,85-355,85-587C7433.9,5896.6,7399.9,5685.6,7327.9,5471.6z M6636.1,5629.9c1.3,2.7,4.8,7.9,12.8,13.7c26,19,135,11,206-17
		c76-29,110-56,155-124c12.2-18.4,39.1-64.9,32.4-82.5C7007.1,5327.3,6584.5,5446.1,6636.1,5629.9z M6993.9,5446.6 M6738.4,6279.2
		c0,0-1,27.2,0.5,35.4c19,103,176.5,211.6,250,241c73.5,29.4,158-8,158-8s2.1-22.2-2-32C7120.5,6250.4,6744.2,6255.3,6738.4,6279.2z
		 M6445,7036.2l-66.1-14.6l-3,40c-5,67,49,164,122,220c78,60,219,96,232,60c6.3-17.5,7-37.3,0.2-69.4c0,0-12.5-59.3-54.7-108.1
		C6595,7071,6445,7036.2,6445,7036.2z M3722.9,7036.6c-69,22-198.8,112.9-218,182c-20,59-28,128-15,140c7,7,70,0,114-14
		c57-18,123-54,152-85c31-33,73.3-124.1,77-158s-2.7-84.4-5.2-84.4c-0.2,0-0.3,0.2-0.4,0.4C3792.6,7024,3791.9,7014.6,3722.9,7036.6
		z M3748.9,7076.6 M3069.9,6518.6c-2.4,7-8.4,24.3-0.3,34c4.7,5.6,12.4,6.1,16.3,7c50,11,164,0,210-21c93-41,164-117,188-201l9-31
		c-87.2,10.1-200.6,1.8-261.6,30.3C3170.3,6365.4,3084.5,6476.1,3069.9,6518.6z M3173.9,5431.6c5.1,22.7,31.1,126.8,131,190
		c0,0,93.6,59.1,264,26c3.1-0.6,9.2-1.9,13.6-6.8c23.9-26.5-37-116.6-40.2-121.2C3463.4,5404.4,3223.4,5426.3,3173.9,5431.6z"/>
	<path class="st19" d="M5553.9,8103.6c-38-19-54-60-40-102c13-41,35-55,83-55c42,0,67,26,74,77c4,31,1,42-19,60
		C5620.9,8112.6,5584.9,8119.6,5553.9,8103.6z"/>
	<path class="st19" d="M4577.9,8081.6c-51-51-12-135,62-135c65,0,100,65,67,122c-16,28-26,33-61,36
		C4611.9,8107.6,4598.9,8102.6,4577.9,8081.6z"/>
	<path class="st19" d="M6401.9,7750.6c-76-40-60-147,23-160c28-5,41-1,67,21c53,44,41,114-23,141
		C6428.9,7769.6,6434.9,7769.6,6401.9,7750.6z"/>
	<path class="st19" d="M3751.9,7739.6c-51-32-61-86-24-130c32-37,99-39,127-4c34,42,19,119-28,140
		C3794.9,7760.6,3783.9,7759.6,3751.9,7739.6z"/>
	<path class="st19" d="M3256.9,6976.6c-12-5-29-21-39-35c-14-22-15-32-6-64c13-43,45-65,93-63c40,1,68,28,75,73
		C3390.9,6950.6,3317.9,7002.6,3256.9,6976.6z"/>
	<path class="st19" d="M6903.9,6949.6c-27-22-31-31-26-57c9-45,43-76,83-76c72,0,111,90,60,138
		C6988.9,6984.6,6942.9,6982.6,6903.9,6949.6z"/>
	<path class="st19" d="M6551.9,5274.6c-18-12-175,1-220,19c-61,24-44,80,28,93c88,15,197-24,202-74
		C6563.9,5296.6,6559.9,5279.6,6551.9,5274.6z"/>
	<path class="st19" d="M3932.9,5310.6c-14-8-199-53-223-54c-15,0-56,33-56,46c0,26,41,57,100,75c49,15,152,10,172-8
		S3949.9,5321.6,3932.9,5310.6z"/>
	<path class="st19" d="M3503.9,5101.6c-22-11-64-15-164-15c-126,0-136,1-146,20c-13,24-6,53,16,71c10,8,59,16,122,19
		c189,12,180,12,198-15C3549.9,5150.6,3540.9,5120.6,3503.9,5101.6z"/>
	<path class="st19" d="M7042.9,5118.6c-14-41-36-47-179-47c-139,1-208,17-216,51c-9,34,3,72,24,78c9,2,40,3,67,0c28-2,103-7,167-10
		C7042.9,5182.6,7061.9,5172.6,7042.9,5118.6z"/>
	<path class="st19" d="M7203.9,3907.6c-74-39-102-145-57-212c61-91,151-104,219-30c35,37,38,45,38,100c0,54-4,64-32,97
		c-33,37-81,64-115,64C7246.9,3926.6,7222.9,3918.6,7203.9,3907.6z"/>
	<path class="st19" d="M2847.9,3846.6c-28-11-54-48-54-78c0-34,52-82,87-82c64,0,99,94,53,140c-11,11-24,20-29,20s-15,2-23,4
		C2874.9,3853.6,2858.9,3851.6,2847.9,3846.6z"/>
	<g id="text_1_" class="st20">
		<path class="st21" d="M6560.9,3179.6l-27-28h-298c-163,0-319,2-347,5c-48,5-50,4-53-20c-2-21,3-28,32-38c20-7,45-25,56-39
			c20-26,21-35,18-421l-3-394l-26-21c-15-12-40-29-57-39c-21-11-29-22-26-35c5-17,20-18,215-18h209v27c0,18-7,29-19,33
			c-11,3-34,22-50,41l-31,35v144v145h109c118,0,141-9,141-54c0-12,5-27,12-34c14-14,54-16,62-4c2,4,6,82,7,171l2,164l-33,14
			c-36,14-50,7-50-28c0-9-8-27-18-39c-17-20-29-23-125-27l-107-4v99c0,55-3,114-6,131l-6,31h164h164l48-55c74-86,81-80,91,78
			c12,198,12,201-5,205C6595.9,3205.6,6576.9,3194.6,6560.9,3179.6z"/>
		<path class="st21" d="M7667.9,3181.6c-16-14-33-26-39-26c-5-1-161-2-345-3l-335-1l-3-23c-2-14,3-24,15-29c10-3,33-17,51-30l32-24
			v-393c0-379-1-394-20-419c-11-14-36-31-55-37c-28-9-35-17-35-38v-27l355,3c347,4,357,3,396-18c23-11,44-19,46-16c3,3,8,42,10,87
			c3,46,13,115,23,155c18,78,14,94-26,94c-15,0-32-15-54-50c-18-28-41-55-52-61c-10-5-98-11-196-12l-177-2l-3,125l-3,125l128-2
			c70,0,132-2,136-2c4-1,17-21,28-46c21-47,37-55,63-29c13,13,16,42,16,162c0,81-4,152-8,158s-21,15-38,18c-29,7-32,5-38-25
			c-12-64-25-69-163-69h-123v130v130h58c33,0,114-3,182-7l122-6l30-49c16-26,36-48,43-48c26,0,38,29,32,83c-3,28-2,91,2,139
			c3,48,5,92,3,98C7719.9,3213.6,7698.9,3207.6,7667.9,3181.6z"/>
		<path class="st21" d="M2765.9,3152.6c-73-18-142-63-179-120c-66-97-72-196-18-304c46-92,86-118,271-177c151-49,197-77,209-128
			c9-36-21-87-65-110c-27-14-53-17-115-15c-109,4-159,30-225,114c-28,36-56,64-62,62c-11-4-88-212-88-238c0-9,29-28,73-47
			c143-64,153-66,297-67c126-1,139,1,190,25c237,113,276,389,73,522c-30,20-97,50-151,68c-190,63-232,90-232,152c0,64,46,97,138,97
			c83,0,145-24,195-76c23-24,47-44,53-44s20,21,32,48c12,26,40,67,62,92s40,48,40,51c0,10-159,76-226,93
			C2964.9,3169.6,2839.9,3169.6,2765.9,3152.6z"/>
		<path class="st21" d="M5283.9,3155.6c-41-5-119-7-172-4l-98,6v-25c0-17,9-30,29-42c61-36,61-34,61-459v-387l-29-26
			c-16-15-38-34-50-42c-13-9-20-21-17-30c5-13,38-15,209-14c197,0,202,1,202,21c0,12-17,34-45,55l-45,34l-8,369c-4,204-5,384-2,401
			c6,35,27,62,68,89c19,12,27,25,25,39C5407.9,3165.6,5388.9,3167.6,5283.9,3155.6z"/>
		<path class="st21" d="M3889.9,3139.6c-6-15,12-34,58-62c19-12,37-33,40-47c4-15,7-195,7-401c1-415,3-399-66-438
			c-26-14-40-29-41-43c-1-20,0-20,345-19c345,2,346,2,375-20c49-39,53-33,61,80c4,56,11,131,15,167c10,70,4,85-35,92
			c-32,6-40,0-54-43c-6-20-25-49-42-65l-30-29l-160-3l-159-4v365v365l30,31c17,16,39,33,51,36c14,5,19,14,17,28c-3,22-6,22-205,22
			C3945.9,3151.6,3892.9,3148.6,3889.9,3139.6z"/>
		<path class="st21" d="M3678.9,1782.6c-54-23-85-70-85-127c0-93,55-149,144-149c39,0,53,5,78,30c31,32,33,47,5,64c-12,8-21,6-35-7
			c-27-24-69-21-97,8c-61,60,12,156,83,109c25-16,26-16,49,10c13,15,23,31,23,35c0,13-76,41-108,41
			C3720.9,1795.6,3694.9,1789.6,3678.9,1782.6z"/>
		<path class="st21" d="M4067.9,1777.6c-94-57-100-172-14-245c72-60,201-7,230,94C4316.9,1741.6,4172.9,1841.6,4067.9,1777.6z
			 M4172.9,1711.6c36-18,46-56,27-94c-26-49-74-55-111-15c-33,36-32,77,1,103C4121.9,1730.6,4135.9,1731.6,4172.9,1711.6z"/>
		<path class="st21" d="M4459.9,1735.6c-9-92-7-188,4-210c6-11,21-19,35-19c24,0,25,2,25,78l1,77l24-46c34-65,51-77,75-53
			c11,10,31,41,44,68l25,50l3-85l3-84h30h30l3,143l3,142h-38c-37,0-39-2-78-75c-22-41-42-75-45-75s-13,22-23,48
			c-24,68-52,102-86,102C4467.9,1796.6,4466.9,1794.6,4459.9,1735.6z"/>
		<path class="st21" d="M5388.9,1775.6c-4-12-25-60-47-106c-22-47-42-102-45-124l-6-39h37c33,0,36,2,36,29c0,32,14,41,65,41
			c49,0,65-9,65-36c0-22,4-24,45-24c29,0,45,4,45,13c0,6-28,69-62,139c-61,122-64,127-95,127
			C5402.9,1796.6,5393.9,1791.6,5388.9,1775.6z M5452.9,1666.6c8-25,7-32-4-37c-37-13-61,27-33,55
			C5433.9,1702.6,5440.9,1699.6,5452.9,1666.6z"/>
		<path class="st21" d="M5744.9,1667.6c2-71,7-132,10-135c4-4,20-11,38-16l31-9l-5,82l-6,82l73-78c47-49,81-77,94-77
			c19,0,22,7,28,92c3,50,6,113,6,140c0,47-1,48-30,48h-30v-75c0-41-4-75-9-75c-6,0-30,27-56,60c-54,71-80,90-118,90h-29
			L5744.9,1667.6z"/>
		<path class="st21" d="M6216.2,1721.1c21.4-25.5,36.8-44,55.2-66c35.7-41.7-14.6-138.6,36.6-147.1c51.2-8.5,59.8,75.8,79,127.2
			c10.8,30.3,23.7,68.8,28.1,85.5c7.6,29.2,5.3,82.4-25.7,85c-30.9,2.6-29.7-74.6-34.3-87.3s-15.8-45.6-20.4-44.4
			c-5.6,1.4-23.5,24-42.3,50.7c-38.7,57.1-82.4,93.7-92.5,72.2S6194.8,1746.6,6216.2,1721.1z"/>
		<path class="st21" d="M4948.9,1724.6c-3-35-5-97-3-138c3-73,4-75,31-78c25-3,27-1,27,37v40l62,7c114,13,154,90,84,160
			c-33,33-36,34-114,34h-80L4948.9,1724.6z M5087.9,1707.6c27-30,5-63-37-59c-29,3-32,6-35,41s-2,37,26,37
			C5057.9,1726.6,5078.9,1717.6,5087.9,1707.6z"/>
		<path class="st21" d="M2985.9,1697.6c-276-6-295-7-308-25c-19-26-18-43,4-54c9-5,160-12,334-15c344-7,348-7,348,47
			C3363.9,1702.6,3351.9,1704.6,2985.9,1697.6z"/>
		<path class="st21" d="M6863.9,1699.6c-36-15-41-66-7-87c33-21,583-8,597,14s12,36-6,54c-13,14-50,16-248,16c-128,0-253,2-277,5
			C6898.9,1703.6,6871.9,1703.6,6863.9,1699.6z"/>
	</g>
</g>
<g id="Black_logo" class="st1">
	<path class="st22" d="M773.6,370.1c-7.7-45-27.1-87-57.5-124.8c-7.7-9.5-26.4-28.2-34.2-34.1c-15-11.5-37.3-25.8-50.4-32.4
		c-17.1-8.6-49.8-19.7-69.1-23.4c-16.7-3.3-52.3-5.6-67.5-4.5c-8.5,0.7-20.4,2.4-34.4,5c-62.2,11.7-121.9,48.1-159.7,97.4
		c-15.5,20.2-31,47.9-38.4,68.5c-8.6,24.3-12.6,43.1-15.1,71.5c-2.4,27.1,1.5,65.2,8.8,86.9c16.5,49.4,41.5,88.1,77.6,120.2
		c4.5,4.1,8.4,7.6,8.7,7.9c1.3,1.4,25.3,18.1,31.1,21.7c24.1,15,55.5,26.8,89.4,33.4c23.1,4.6,47.3,5.9,69.5,4
		c33.1-2.9,73.8-14,100.4-27.3c14.1-7.1,26.1-14.7,41.6-26.5c14.9-11.2,20-15.8,31.1-27.9c13.5-14.6,35.8-46,42.8-60.4
		c1.8-3.6,4.1-7.9,5-9.5c6.8-11.3,16.9-44.4,20.8-68C776.8,431.1,776.6,387.7,773.6,370.1z M757.8,470.3c-2.2,9-9.5,29.3-14.1,39
		c-18.5,39.4-47.2,74.4-80.9,98.6c-20.7,14.9-30.8,20.5-52.4,29.2c-19.9,8-35.3,12.1-63,16.8c-14.4,2.4-51.3,3-67.1,1.1
		c-15.3-1.9-44.6-9.2-59.2-14.7c-14-5.2-35.1-15.6-45.2-22.1c-44.1-28.7-74-61.9-95-105.4c-11.5-23.9-16.8-40.4-20.4-64.1
		c-10.8-69.3,9.4-140.6,55.9-197.9c10.5-12.9,24.8-25.6,47.3-42.3c12.7-9.4,37.6-22.2,58.7-30.3c21-8,38.8-12.2,59.5-13.9
		c7.2-0.5,15-1.2,17.5-1.4c8.8-0.8,37.7,0.4,49,2c26.3,3.6,66.4,16.7,83,26.9c1.9,1.2,7.5,4.3,12.4,6.9
		c10.4,5.5,28.5,18.7,40.6,29.5c10.9,9.7,9.1,7.8,20.1,21.1c30.1,36.2,48.1,73.2,56.3,115.7C767.7,400.8,766.7,434.2,757.8,470.3z"
		/>
	<path class="st22" d="M707.9,271.3c-8.3-12-23.6-29.2-34-38.2c-21.8-19-57.5-38.8-85.9-47.8c-29.9-9.4-58.1-13.2-87.6-11.9
		c-36.6,1.7-67.5,9.8-100.5,26.3c-26.1,13.1-45.2,27.1-65.6,48.1c-19,19.5-40.3,53.8-51.2,82.5c-9.3,24.4-13.6,47.2-14.4,76.5
		c-0.4,18.2-0.2,22.9,1.6,35c4,26.8,9.7,44.8,21.6,68.5c17,33.9,41.1,63.4,67.9,83.2c5,3.7,11.8,8.7,15.1,11.2
		c17.5,12.9,48.5,26.5,74.5,32.7c23.1,5.5,32.2,6.9,49.4,7.8c22,1.1,35.8,0.1,58.1-4.4c37.6-7.5,61.3-16.6,86-33.1
		C680,583,694,569.2,717,534.5c14.6-21.9,23.6-42.3,30.2-68.2c5.5-21.7,7.2-34,7.2-52.3C754.4,361.8,740,317.6,707.9,271.3z
		 M372.3,590.9c-2.1-1.4-2.1-1.4,0.7-2.9c1.6-0.8,8.5-3.3,15.4-5.6s13.4-4.6,14.5-5.2c1.1-0.5,7-2.5,13-4.3
		c13.3-4.1,29.2-10.1,40-15.1c4.4-2,10.4-4.5,13.3-5.6c7-2.4,14.6-6.6,17.3-9.5c2.6-2.7,5.9-3.2,5.9-0.8c0,0.9-0.6,2.8-1.4,4.2
		c-0.8,1.5-2.4,4.8-3.6,7.5c-1.6,3.4-3.4,5.4-6.3,7.1c-11.2,6.5-25,12.9-32.7,15.3c-4.7,1.5-13.2,4.4-19,6.5
		c-10.2,3.8-25.8,8.1-40.8,11.3C380.9,595.4,377.9,594.8,372.3,590.9z M490.1,484.5c1.2,1.3,3.1,1.8,7.1,1.8
		c7.1,0,13.2-3.4,16.7-9.4c3.3-5.6,3.5-15.5,0.5-21.9c-2.7-5.7-10.2-12.9-17-16.4c-4.8-2.4-6.6-2.8-14.1-2.7
		c-7.2,0-9.4,0.4-14.1,2.7c-7.4,3.6-14.9,11.7-17.8,19.2c-1.9,4.8-2.4,7.9-2.4,16c-0.1,15.7,3.2,23.6,16.7,40.2
		c5.4,6.6,6.2,8,3.9,6.9c-14.9-7.1-19-9.4-24.7-13.8c-8.5-6.4-24.2-22.2-31.1-31.3c-4.7-6.3-17.5-30.5-17.3-33
		c0-0.6,3.8-4.1,8.5-7.9c9.1-7.3,17.2-16.3,20.4-22.7c5.8-11.3,6.3-25.9,1.6-44.3c-1.5-5.4-2.6-10-2.6-10.2s-0.8-0.4-1.9-0.4
		c-2.2,0-13.4,8.2-21.9,16.1c-3.9,3.8-10.6,12.8-10.6,12.8s0.6-3.1,2.9-8.7c0.4-0.9,1.8-5.2,3.1-9.5c3.1-9.6,8.1-20.1,12.3-25.9
		c5.5-7.5,22.7-24.3,30.3-29.5c9.7-6.7,24.8-15,32.7-18c9-3.4,31.6-7,27-4.3c-0.9,0.5-4.9,2.1-9,3.6c-20.3,7.2-30.1,16.4-38,35.3
		c-4.6,10.9-5.8,17.2-5.9,29.1c0,12.7,1.7,19.8,7.1,29.8c8.5,15.8,16.1,21.7,46,35.8c32.4,15.3,36.7,18.7,42.9,33.9
		c6.1,14.9,0.2,31-15,41.2c-8.9,6-12.6,7-20.3,5.4c-12.6-2.6-24.1-12-27.1-22.1c-2.3-7.6-2-10.6,1.4-17.8c1.7-3.5,3-6.8,3-7.3
		c0-1.8-5.8-0.9-8.6,1.3c-3.8,3-5.1,4.6-7,8.8c-2.3,5.2-1.3,15.5,2.3,22.7c2.9,5.8,11.8,15.4,16.5,17.9c1.5,0.8,4.4,2.5,6.4,3.9
		c2,1.4,5.4,3,7.5,3.5c4.2,1.2,5.1,3.3,2,5c-3.1,1.6-4.3,1.3-13.6-3.8c-11.3-6-19.2-13.8-24-23.5c-6.3-13-6.7-23.6-1.1-33
		c8-13.2,24.4-15.5,35.7-4.8c3.7,3.6,3.9,4.1,3.9,10c0,8.9-2,10.7-14,12.5C487.5,477.9,487.9,482.1,490.1,484.5z M411.1,409
		c-1.5,3.3-15.4,19.7-16.8,19.4c-0.5-0.1-0.8-0.9-1.7-8.3c-2-15.9,1.6-25.6,13.9-38c4.9-5,7-8.4,8.7-7.7c0.9,0.3,1.3,1.6,1.5,3.2
		C418,388.2,419.9,390.1,411.1,409z M439.4,273.3c-3.1-0.6-9.8-0.6-15.4-5c-2.1-1.7-7-7.3-9.5-14.2c-0.7-1.9-1.2-6-1.5-9.7
		c-0.6-5.8,0.9-9.3,2.8-10.5c2.8-1.8,7.7,1,10.1,2.5c1.4,0.8,17.7,10.8,16.5,27C442.1,267.6,440.7,270.9,439.4,273.3z M400.7,608.3
		c-2.4-1.7-4.9-3-5.6-3c-2.5,0,1.1-1.7,6.3-2.9c16.3-3.9,48.6-14.8,57-19.1c3-1.6,8.2-4.1,11.4-5.6c3.2-1.5,7.1-3.8,8.5-4.9
		c3.9-3.3,6.6-4.1,7.6-2.5c0.8,1.3-4,14.8-6.2,17.2c-4.2,4.7-23.7,12.6-44.8,18.3c-2.7,0.7-8.4,2.3-12.5,3.4
		C411.6,612.2,406.2,612,400.7,608.3z M443.9,623.9c-5.8-0.7-11.3-2.2-13.5-3.6c-1.3-0.9-1.3-1.1,0-2c0.8-0.6,4-1.7,7-2.6
		c13.4-3.8,22.9-7,28.5-9.5c6.6-3.1,9.5-3.6,9.5-1.6c0,2.7-11.6,12.7-19,16.3C449.8,624.1,448.3,624.4,443.9,623.9z M464.4,634.4
		c0-0.5,2.1-2.9,4.7-5.3c9.4-8.6,11.6-11.4,15.4-19.4c5.2-11.1,8.5-21.3,11.5-35.7c1.5-6.7,3-12.7,3.4-13.2c0.4-0.6,1.5-3.3,2.3-6
		c2.1-7,8.9-21.4,12.8-27.2c4.7-6.8,11.5-13.8,18.4-19.1c9-6.8,17.7-16,20.7-22.2c3.6-7.1,5.4-19.5,3.9-27.3
		c-1.6-8.6-6.5-17.3-14.1-25c-7.1-7-14.3-11-41.5-22.7c-16.1-7-27.1-15.7-35.5-28c-6.6-9.8-8.5-15.8-8.4-28
		c0.1-9.2,0.5-11.4,3.1-18.2c3.9-10,8.1-16.3,14.7-22.6c9.5-9,23-14.2,36.7-14.2c9.4,0,15.6,1.7,25.5,6.9
		c15.7,8.1,24.1,21.2,25.1,39.1c0.5,7.4,0.3,9.2-1.6,12.8c-4.8,9.5-12.8,15.2-21.2,15.2c-9,0-18.5-7.6-19.6-15.7
		c-0.7-5.3,1-8.1,6.3-10.4c3.4-1.6,4.4-2.5,4.4-4.4c0-2.9-2.6-4.5-7.4-4.5c-14.4,0-20.8,14.8-13.1,30.5c7.1,14.6,28.2,21,43.5,13.2
		c3-1.6,6.7-3.9,8.1-5.1c10.9-9.5,15.5-27.6,11.3-44c-2.8-11-6.1-16.5-15.3-25.7c-8-7.9-9.4-8.8-18.9-12.7
		c-5.6-2.3-11.2-4.2-12.5-4.2c-1.2,0-2.9-0.5-3.7-1c-2.3-1.5,4-1.3,13.6,0.4c20.2,3.6,38.2,12.8,56.8,29
		c17.5,15.3,32.9,41.8,34.3,59.1c0.7,7.9,0.8,7.9-6.2-1c-4.6-5.8-4.9-6.2-13.2-13.8c-7.3-6.6-10.7-7.4-12.4-3
		c-3.1,7.9-5.9,22.1-5.9,29.7c0,18.8,6.5,29.9,26.9,45.6c7.9,6.2,8.1,6.8,5.1,15.4c-7.9,23.2-29.4,47.9-55.9,64.3
		c-5.5,3.5-10.3,6.3-10.6,6.3c-1.6,0,0.1-3.1,4.4-8.3c5.8-7,13.1-20.7,16.1-30.2c4.7-15,2.2-36.9-5.8-51.9
		c-7.1-13.1-17-20.1-53.2-37.4c-18.6-9-26.1-14-31.5-21.3c-5.2-7-6.9-12.8-6.3-21.6c0.7-12.9,7.7-22.9,20.6-29.4
		c6-3.1,7.4-3.4,15.2-3.4c8,0,8.9,0.2,14.3,3.5c10.7,6.4,16.7,15.3,16.7,24.5c0,6.4-1.3,8.2-8.6,12c-3.3,1.6-5.9,3.7-5.9,4.5
		c0,2.1,6.8,4.4,10.8,3.6c5.4-1,11.6-6.1,13.9-11.4c1.9-4.3,2-5.4,1-12.2c-1.3-9.2-4.2-14.7-12.1-22.8c-11.6-11.8-29-17.1-42.2-12.8
		c-9.9,3.3-14.4,6.1-22,13.6c-8.5,8.4-12.1,14.8-14.3,25.3c-4.6,22.4,7.8,42.6,33.4,54.5c35,16.2,40.1,18.8,45.7,23.4
		c6.8,5.6,13.2,14,16.7,21.7c2.5,5.6,2.7,7.2,2.7,17.9c0,20.1-3.5,28.5-18.7,44.7c-14.6,15.5-22.2,23.7-24.7,27
		c-4.4,5.5-10.8,16-11.4,18.5c-0.3,1.4-1.6,4.6-2.9,7.1c-1.2,2.5-3.2,8.1-4.4,12.5c-1.2,4.3-3,10.8-4.1,14.4
		c-1,3.6-2.3,8.3-2.8,10.5c-1.3,4.9-8.9,20.1-12.6,24.9C478.8,630.3,464.4,638.2,464.4,634.4z M509.2,254c-2.5,0.4-5.5-5.5-7.4-9.5
		c-1.1-2.2-1.8-3.6-2.3-5.6c-0.5-1.9-0.6-4-0.5-7.1c0-8.8,1.6-13.6,6.6-20.3c4.4-5.9,5.6-5.9,10.5,0.2c1.1,1.4,2.9,3.9,4.3,7.7
		c0,0,0,0,0,0c1.2,4.8,1.7,9,1.8,10.9c0,0,0.1,9.7-11.8,22.9C510.2,253.5,509.8,253.9,509.2,254z M580.3,271.3
		c-1.3,0-1.1-11.7,0.2-16.4c1.3-4.7,6.5-12.7,10-15.4c6.9-5.4,14.1-7.7,15.4-4.2c0,0,5.3,12.6-0.6,23
		C599.3,268.8,580.3,271.3,580.3,271.3z M629.4,418.7c-1.3,6.1-3,7.8-5.8,5.3c-0.9-0.8-3.4-2.2-5.4-3.2c-2.1-0.9-6.3-4.4-9.3-7.7
		c-8.5-9.2-9.8-15.8-6.4-33.6l1-5.2l5.6,4.7c3,2.6,7.9,7.4,10.9,10.7C628.9,399.5,631.7,408,629.4,418.7z M523,633.1
		c-0.9,0.9-24.1,1.6-26.2,0.8c-1.2-0.5-1-1.4,1-5.5c2.3-4.4,4.9-12.4,7.7-23.1c0.5-1.9,1.3-7.5,1.9-12.4c0.9-8,2.5-13.4,3.6-12.4
		c0.2,0.3,0.8,5.6,1.4,11.9c1.2,13.7,3.9,24.9,8.1,33.5C522.3,629.5,523.4,632.7,523,633.1z M551.2,633.9c-0.2,0.2-3.3-1.6-6.9-4
		c-13.8-9.3-19.7-19.3-21.2-35.9c-0.3-2.6,0-4.7,0.5-4.7s1.8,2.1,3,4.7c10.4,24.3,10.8,25,16.9,30.3
		C549,629.1,552.1,632.9,551.2,633.9z M579.9,624.7l-9.5,1.8l-4.7-2.8c-2.7-1.6-6.4-3.6-8.3-4.5c-4.8-2.3-14-12.5-14-15.5
		c0-1.9,0-1.9,9.3,2.6c4.6,2.2,14.8,6,22.8,8.6c7.9,2.5,14.8,5,15.4,5.6C592.5,621.9,590.2,622.8,579.9,624.7z M614.2,612.6
		c-3.6,0.9-18.5-1.8-26.1-4.7c-3.4-1.3-10.5-3.6-15.7-5c-14.1-3.8-30.4-12.2-36.3-18.6c-2.6-2.8-4.7-5.4-4.7-5.8
		c0-0.4-1.1-3-2.5-5.7c-4.1-8.3-2.9-11,2.4-5.8c8.1,8,24,15,64.1,28.1c11.8,3.9,23.6,7.6,26.3,8.3c2.6,0.6,4.7,1.5,4.7,1.9
		C626.4,606.3,617.2,611.9,614.2,612.6z M632.2,593.9c-2.4-0.8-7.2-2.2-10.8-3.1c-3.6-0.9-11.7-3.2-18-5.1c-6.3-2-14.4-4.4-18-5.5
		s-11.4-4.1-17.5-6.6c-25.3-10.5-37.1-15.5-37.9-16.3c-1.2-1.2,0.1-6.9,2.4-10.8c2.3-3.8,2-3.8,8.1,0.6c4.8,3.5,10.8,6.3,23.9,11.2
		c4.1,1.5,12.5,4.8,18.5,7.2c6.1,2.4,18,6.6,26.5,9.2c28.5,8.7,32.4,10.1,35.5,12.1C653.6,592.7,644.3,597.9,632.2,593.9z
		 M732.8,476.8c-6.7,20.2-19.2,45.7-27.3,55.5c-2.1,2.5-5.2,6.7-7.1,9.5c-4.3,6.5-15.4,20-19.9,24.5c-2,1.9-5,5.2-6.8,7.3
		c-2.6,3.1-3.7,3.7-7.1,3.7c-13.3,0-57.2-13.5-92.7-28.5c-5.5-2.3-12.5-5-15.5-6c-7.6-2.5-14-5.4-14-6.4c0-1.6,2.5-2.8,9.5-4.5
		c10.2-2.4,30.3-12.7,39.6-20.2c4.3-3.4,8.7-6.8,9.9-7.4c1.1-0.6,3.1-2.8,4.4-4.8c1.3-2,6.6-8,11.8-13.3
		c8.4-8.7,10.3-10.2,19.8-14.8c5.8-2.8,11.3-5.1,12.2-5.1c1,0,2.9,2.3,4.9,6.1c6.8,12.7,15.3,19.1,28.7,21.9
		c7.3,1.5,13.2,1,26.6-2.1l9.8-2.3l-0.5-3.8c-0.3-2.1-2.6-8-5.1-13.2c-6.8-14.1-15.6-21.2-29.4-23.8c-11.8-2.2-20.4-0.3-46.6,10.1
		c-4.3,1.8-8,3-8.2,2.9c-0.2-0.2,2.1-4,5.1-8.3c3-4.4,8-12.3,11.2-17.5c7.1-11.8,12-18.5,16.7-23l3.7-3.5l14.2-0.6
		c15.3-0.7,18.5-1.5,26.2-6.4c12.6-8.1,20.5-22.4,20.5-37.1v-6.2l-6.3-1.1c-7.9-1.4-20.8-1.4-26.7,0c-15.1,3.5-25.6,14.4-31.6,32.9
		c-2.6,8.3-3.5,9.7-12.4,20.7c-3.1,3.7-6.6,8.4-7.8,10.3l-2.2,3.5v-4.2c0-2.3,0.5-7.6,1.1-11.8c1.4-9.1-0.1-28-3.1-39.5
		c-1.2-4.7-1.9-10.6-1.9-16c0-8.3,1.1-18.5,2-19.4c0.2-0.3,4.6-1.1,9.8-2c11.3-1.8,18.4-5.1,24.5-11.4c8.2-8.3,12.6-20.5,12.6-34.8
		v-8.2l-6.5-0.7c-16-1.7-32.3,3.8-40.9,13.8c-8.4,9.9-11.5,19.5-11.7,36.6c-0.1,5.3-0.4,10.7-0.8,12.1c-0.6,2.3-1,2-4.1-3.8
		c-4.1-7.8-13.3-18.6-23.8-28.1c-8.4-7.7-12.7-14.1-13.8-20.7l-0.6-4l6-1.2c11.7-2.4,23-12.1,27.4-23.5c2-5.3,2.3-8,2.3-18.7
		c-0.1-8.9-0.5-13.4-1.5-15.5c-1.4-2.8-2-3-7.3-3.3c-18.7-1-37.1,13.9-40.7,32.9c-1.8,9.6-1.2,19.5,2.1,31.1c0.7,2.6,1.1,5,0.8,5.3
		c-0.3,0.2-3.5-1.1-7.1-3c-9-4.8-26.9-9.5-39.2-10.2l-9.8-0.6l0.5-3.4c0.3-1.9,2.5-6.2,4.8-9.6c2.4-3.4,6-9.9,8.2-14.5
		c8.6-18.4,5.1-38.2-9-50.9c-6.9-6.2-9.4-7-13.7-4.3c-6.6,4-12,11.3-16.6,22.5c-2.2,5.3-2.5,18.4-0.6,24.9
		c1.9,6.4,7.4,16.1,13.2,23.1c3,3.7,3.5,5,2.9,7.2c-1.1,4.4-2.4,5.3-7.6,5.3c-10.3,0-29.8,5.6-41.8,12.1c-4,2.2-7.6,3.7-7.9,3.5
		c-0.2-0.3,0.2-2.3,1.1-4.4c2.4-5.9,4-19.3,3.5-29c-0.4-7.4-0.9-9.7-3.9-15.6c-6.9-13.9-21.1-22.6-37.1-22.6h-5.7l-1.5,5.1
		c-6.9,23.1,1.3,44.7,20.6,54.1c3.1,1.5,7.3,3,9.6,3.4l4,0.6l-1,3.7c-2.3,8.4-5.9,13.3-20.1,27.4c-9.2,9.1-15.8,16.5-18.3,20.7
		l-3.9,6.5l-0.6-16c-1-23-4-30.9-15.4-40.5c-7.5-6.1-15.1-8.1-30-7.8l-12,0.3l-0.3,4.5c-1,13.4,3.9,28.8,11.6,36.7
		c7.8,8,14.9,11.1,29.3,12.8l5.7,0.7l0.6,4.4c1.9,13.8,1.8,22.9-0.2,30.5c-4.2,15.8-5,32.8-2.7,56.4l0.6,6l-3-4.7
		c-1.7-2.6-4.2-6.9-5.7-9.6c-1.5-2.8-4.7-7.7-7.1-10.9c-3-4-5.1-8.4-6.9-14.3c-5.7-18.8-13.9-27.9-29.3-32.6
		c-6.2-1.9-20.1-1.7-28.1,0.4l-6.5,1.7l0.1,6.5c0.1,8.4,2.5,15.8,7.6,23.8c4.3,6.6,9.3,10.7,17.5,14.4c4,1.8,7.2,2.2,19.6,2.6
		c13.7,0.4,14.9,0.6,16.3,2.6c0.8,1.1,3.3,4.6,5.5,7.6c2.2,3,5.6,8.4,7.5,12c1.9,3.6,6.4,9.9,10,14c7.4,8.3,12.4,14.9,12.4,16.2
		c0,0.4-0.5,0.8-1.1,0.8c-1.6,0-17.3-5.7-23.4-8.5c-7.9-3.6-14.9-4.8-24.4-4.2c-17.3,1-26.9,7.4-34.6,23c-2.5,5.1-4.8,10.8-5.1,12.8
		c-0.6,3.5-0.5,3.6,4.2,5.6c15.3,6.6,32.5,6.4,44-0.3c5.7-3.3,15-13.6,16.5-18.3c0.7-2,1.7-3.9,2.2-4.3c2-1.2,7.1,0.3,17.6,5.4
		c10.1,4.8,10.8,5.4,29.2,23.5c11,10.9,21.2,20,24.6,22.1c11.4,6.8,21.9,12,26.8,13.1c2.8,0.7,6.7,1.7,8.9,2.2l3.9,1l-3.4,2.3
		c-1.9,1.2-7.2,3.5-11.9,5.1c-4.7,1.6-11.6,4.2-15.5,5.8c-3.8,1.6-12.8,5.3-20,8.2c-7.1,2.9-17,7-22,9c-12.1,5-34.1,11-47.6,12.9
		l-4.5,0.7l-9-9.2c-4.9-5.1-10-10.4-11.4-11.8c-1.4-1.4-5.2-6.2-8.4-10.6c-3.2-4.4-7.8-10.5-10.1-13.6
		c-7.9-10.5-22.3-39.5-28.6-57.8c-10.8-31.4-12.8-74.3-5.3-109.1c3.4-15.4,10.4-35.8,17.4-50.7c9.4-19.7,33.6-54.2,46.6-66.4
		c18.6-17.4,49-37.5,66.9-44.4c3.9-1.5,9.5-3.7,12.5-5c3-1.3,9.1-3.3,13.5-4.5c33.5-9.1,40.7-10,75-9.5c19.7,0.2,27.6,0.8,37.5,2.4
		c20,3.4,50.6,13.6,64.4,21.4c16.5,9.4,25.6,15,35.5,22.1c13.7,9.7,30.7,26,38.8,37.1c1.2,1.7,3.8,5.2,5.9,8
		c16.2,21.4,27.1,44.2,36.9,77c6.5,22,8.5,35.5,8.5,58.7C743.4,434.3,740,455.4,732.8,476.8z M663.6,461c0.1-0.3,0.5-0.8,1.3-1.4
		c2.6-1.9,13.5-1.1,20.6,1.7c7.6,2.9,11,5.6,15.5,12.4c1.2,1.8,3.9,6.5,3.2,8.2C700.7,491.3,658.5,479.4,663.6,461z M699.4,479.3
		 M673.8,396.1c0,0-0.1-2.7,0.1-3.5c1.9-10.3,17.7-21.2,25-24.1c7.3-2.9,15.8,0.8,15.8,0.8s0.2,2.2-0.2,3.2
		C712.1,399,674.4,398.5,673.8,396.1z M644.5,320.4l-6.6,1.5l-0.3-4c-0.5-6.7,4.9-16.4,12.2-22c7.8-6,21.9-9.6,23.2-6
		c0.6,1.8,0.7,3.7,0,6.9c0,0-1.2,5.9-5.5,10.8C659.5,316.9,644.5,320.4,644.5,320.4z M372.3,320.3c-6.9-2.2-19.9-11.3-21.8-18.2
		c-2-5.9-2.8-12.8-1.5-14c0.7-0.7,7,0,11.4,1.4c5.7,1.8,12.3,5.4,15.2,8.5c3.1,3.3,7.3,12.4,7.7,15.8c0.4,3.4-0.3,8.4-0.5,8.4
		c0,0,0,0,0,0C379.3,321.6,379.2,322.5,372.3,320.3z M374.9,316.3 M307,372.1c-0.2-0.7-0.8-2.4,0-3.4c0.5-0.6,1.2-0.6,1.6-0.7
		c5-1.1,16.4,0,21,2.1c9.3,4.1,16.4,11.7,18.8,20.1l0.9,3.1c-8.7-1-20.1-0.2-26.2-3C317,387.5,308.5,376.4,307,372.1z M317.4,480.8
		c0.5-2.3,3.1-12.7,13.1-19c0,0,9.4-5.9,26.4-2.6c0.3,0.1,0.9,0.2,1.4,0.7c2.4,2.6-3.7,11.7-4,12.1
		C346.3,483.6,322.3,481.4,317.4,480.8z"/>
	<path class="st22" d="M555.4,213.6c-3.8,1.9-5.4,6-4,10.2c1.3,4.1,3.5,5.5,8.3,5.5c4.2,0,6.7-2.6,7.4-7.7c0.4-3.1,0.1-4.2-1.9-6
		C562.1,212.7,558.5,212,555.4,213.6z"/>
	<path class="st22" d="M457.8,215.8c-5.1,5.1-1.2,13.5,6.2,13.5c6.5,0,10-6.5,6.7-12.2c-1.6-2.8-2.6-3.3-6.1-3.6
		C461.2,213.2,459.9,213.7,457.8,215.8z"/>
	<path class="st22" d="M640.2,248.9c-7.6,4-6,14.7,2.3,16c2.8,0.5,4.1,0.1,6.7-2.1c5.3-4.4,4.1-11.4-2.3-14.1
		C642.9,247,643.5,247,640.2,248.9z"/>
	<path class="st22" d="M375.2,250c-5.1,3.2-6.1,8.6-2.4,13c3.2,3.7,9.9,3.9,12.7,0.4c3.4-4.2,1.9-11.9-2.8-14
		C379.5,247.9,378.4,248,375.2,250z"/>
	<path class="st22" d="M325.7,326.3c-1.2,0.5-2.9,2.1-3.9,3.5c-1.4,2.2-1.5,3.2-0.6,6.4c1.3,4.3,4.5,6.5,9.3,6.3
		c4-0.1,6.8-2.8,7.5-7.3C339.1,328.9,331.8,323.7,325.7,326.3z"/>
	<path class="st22" d="M690.4,329c-2.7,2.2-3.1,3.1-2.6,5.7c0.9,4.5,4.3,7.6,8.3,7.6c7.2,0,11.1-9,6-13.8
		C698.9,325.5,694.3,325.7,690.4,329z"/>
	<path class="st22" d="M655.2,496.5c-1.8,1.2-17.5-0.1-22-1.9c-6.1-2.4-4.4-8,2.8-9.3c8.8-1.5,19.7,2.4,20.2,7.4
		C656.4,494.3,656,496,655.2,496.5z"/>
	<path class="st22" d="M393.3,492.9c-1.4,0.8-19.9,5.3-22.3,5.4c-1.5,0-5.6-3.3-5.6-4.6c0-2.6,4.1-5.7,10-7.5
		c4.9-1.5,15.2-1,17.2,0.8S395,491.8,393.3,492.9z"/>
	<path class="st22" d="M350.4,513.8c-2.2,1.1-6.4,1.5-16.4,1.5c-12.6,0-13.6-0.1-14.6-2c-1.3-2.4-0.6-5.3,1.6-7.1
		c1-0.8,5.9-1.6,12.2-1.9c18.9-1.2,18-1.2,19.8,1.5C355,508.9,354.1,511.9,350.4,513.8z"/>
	<path class="st22" d="M704.3,512.1c-1.4,4.1-3.6,4.7-17.9,4.7c-13.9-0.1-20.8-1.7-21.6-5.1c-0.9-3.4,0.3-7.2,2.4-7.8
		c0.9-0.2,4-0.3,6.7,0c2.8,0.2,10.3,0.7,16.7,1C704.3,505.7,706.2,506.7,704.3,512.1z"/>
	<path class="st22" d="M720.4,633.2c-7.4,3.9-10.2,14.5-5.7,21.2c6.1,9.1,15.1,10.4,21.9,3c3.5-3.7,3.8-4.5,3.8-10
		c0-5.4-0.4-6.4-3.2-9.7c-3.3-3.7-8.1-6.4-11.5-6.4C724.7,631.3,722.3,632.1,720.4,633.2z"/>
	<path class="st22" d="M284.8,639.3c-2.8,1.1-5.4,4.8-5.4,7.8c0,3.4,5.2,8.2,8.7,8.2c6.4,0,9.9-9.4,5.3-14c-1.1-1.1-2.4-2-2.9-2
		s-1.5-0.2-2.3-0.4C287.5,638.6,285.9,638.8,284.8,639.3z"/>
	<path class="st22" d="M656.1,706l-2.7,2.8h-29.8c-16.3,0-31.9-0.2-34.7-0.5c-4.8-0.5-5-0.4-5.3,2c-0.2,2.1,0.3,2.8,3.2,3.8
		c2,0.7,4.5,2.5,5.6,3.9c2,2.6,2.1,3.5,1.8,42.1l-0.3,39.4l-2.6,2.1c-1.5,1.2-4,2.9-5.7,3.9c-2.1,1.1-2.9,2.2-2.6,3.5
		c0.5,1.7,2,1.8,21.5,1.8h20.9v-2.7c0-1.8-0.7-2.9-1.9-3.3c-1.1-0.3-3.4-2.2-5-4.1l-3.1-3.5v-14.4v-14.5h10.9
		c11.8,0,14.1,0.9,14.1,5.4c0,1.2,0.5,2.7,1.2,3.4c1.4,1.4,5.4,1.6,6.2,0.4c0.2-0.4,0.6-8.2,0.7-17.1l0.2-16.4l-3.3-1.4
		c-3.6-1.4-5-0.7-5,2.8c0,0.9-0.8,2.7-1.8,3.9c-1.7,2-2.9,2.3-12.5,2.7l-10.7,0.4v-9.9c0-5.5-0.3-11.4-0.6-13.1l-0.6-3.1h16.4H647
		l4.8,5.5c7.4,8.6,8.1,8,9.1-7.8c1.2-19.8,1.2-20.1-0.5-20.5C659.6,703.4,657.7,704.5,656.1,706z"/>
	<path class="st22" d="M766.8,705.8c-1.6,1.4-3.3,2.6-3.9,2.6c-0.5,0.1-16.1,0.2-34.5,0.3l-33.5,0.1l-0.3,2.3
		c-0.2,1.4,0.3,2.4,1.5,2.9c1,0.3,3.3,1.7,5.1,3l3.2,2.4v39.3c0,37.9-0.1,39.4-2,41.9c-1.1,1.4-3.6,3.1-5.5,3.7
		c-2.8,0.9-3.5,1.7-3.5,3.8v2.7l35.5-0.3c34.7-0.4,35.7-0.3,39.6,1.8c2.3,1.1,4.4,1.9,4.6,1.6c0.3-0.3,0.8-4.2,1-8.7
		c0.3-4.6,1.3-11.5,2.3-15.5c1.8-7.8,1.4-9.4-2.6-9.4c-1.5,0-3.2,1.5-5.4,5c-1.8,2.8-4.1,5.5-5.2,6.1c-1,0.5-9.8,1.1-19.6,1.2
		l-17.7,0.2l-0.3-12.5l-0.3-12.5l12.8,0.2c7,0,13.2,0.2,13.6,0.2c0.4,0.1,1.7,2.1,2.8,4.6c2.1,4.7,3.7,5.5,6.3,2.9
		c1.3-1.3,1.6-4.2,1.6-16.2c0-8.1-0.4-15.2-0.8-15.8c-0.4-0.6-2.1-1.5-3.8-1.8c-2.9-0.7-3.2-0.5-3.8,2.5c-1.2,6.4-2.5,6.9-16.3,6.9
		h-12.3v-13v-13h5.8c3.3,0,11.4,0.3,18.2,0.7l12.2,0.6l3,4.9c1.6,2.6,3.6,4.8,4.3,4.8c2.6,0,3.8-2.9,3.2-8.3
		c-0.3-2.8-0.2-9.1,0.2-13.9c0.3-4.8,0.5-9.2,0.3-9.8C772,702.6,769.9,703.2,766.8,705.8z"/>
	<path class="st22" d="M276.6,708.7c-7.3,1.8-14.2,6.3-17.9,12c-6.6,9.7-7.2,19.6-1.8,30.4c4.6,9.2,8.6,11.8,27.1,17.7
		c15.1,4.9,19.7,7.7,20.9,12.8c0.9,3.6-2.1,8.7-6.5,11c-2.7,1.4-5.3,1.7-11.5,1.5c-10.9-0.4-15.9-3-22.5-11.4
		c-2.8-3.6-5.6-6.4-6.2-6.2c-1.1,0.4-8.8,21.2-8.8,23.8c0,0.9,2.9,2.8,7.3,4.7c14.3,6.4,15.3,6.6,29.7,6.7c12.6,0.1,13.9-0.1,19-2.5
		c23.7-11.3,27.6-38.9,7.3-52.2c-3-2-9.7-5-15.1-6.8c-19-6.3-23.2-9-23.2-15.2c0-6.4,4.6-9.7,13.8-9.7c8.3,0,14.5,2.4,19.5,7.6
		c2.3,2.4,4.7,4.4,5.3,4.4c0.6,0,2-2.1,3.2-4.8c1.2-2.6,4-6.7,6.2-9.2c2.2-2.5,4-4.8,4-5.1c0-1-15.9-7.6-22.6-9.3
		C296.5,707,284,707,276.6,708.7z"/>
	<path class="st22" d="M528.4,708.4c-4.1,0.5-11.9,0.7-17.2,0.4l-9.8-0.6v2.5c0,1.7,0.9,3,2.9,4.2c6.1,3.6,6.1,3.4,6.1,45.9v38.7
		l-2.9,2.6c-1.6,1.5-3.8,3.4-5,4.2c-1.3,0.9-2,2.1-1.7,3c0.5,1.3,3.8,1.5,20.9,1.4c19.7,0,20.2-0.1,20.2-2.1c0-1.2-1.7-3.4-4.5-5.5
		l-4.5-3.4l-0.8-36.9c-0.4-20.4-0.5-38.4-0.2-40.1c0.6-3.5,2.7-6.2,6.8-8.9c1.9-1.2,2.7-2.5,2.5-3.9
		C540.8,707.4,538.9,707.2,528.4,708.4z"/>
	<path class="st22" d="M389,710c-0.6,1.5,1.2,3.4,5.8,6.2c1.9,1.2,3.7,3.3,4,4.7c0.4,1.5,0.7,19.5,0.7,40.1
		c0.1,41.5,0.3,39.9-6.6,43.8c-2.6,1.4-4,2.9-4.1,4.3c-0.1,2,0,2,34.5,1.9c34.5-0.2,34.6-0.2,37.5,2c4.9,3.9,5.3,3.3,6.1-8
		c0.4-5.6,1.1-13.1,1.5-16.7c1-7,0.4-8.5-3.5-9.2c-3.2-0.6-4,0-5.4,4.3c-0.6,2-2.5,4.9-4.2,6.5l-3,2.9l-16,0.3l-15.9,0.4V757v-36.5
		l3-3.1c1.7-1.6,3.9-3.3,5.1-3.6c1.4-0.5,1.9-1.4,1.7-2.8c-0.3-2.2-0.6-2.2-20.5-2.2C394.6,708.8,389.3,709.1,389,710z"/>
	<path class="st22" d="M367.9,845.7c-5.4,2.3-8.5,7-8.5,12.7c0,9.3,5.5,14.9,14.4,14.9c3.9,0,5.3-0.5,7.8-3c3.1-3.2,3.3-4.7,0.5-6.4
		c-1.2-0.8-2.1-0.6-3.5,0.7c-2.7,2.4-6.9,2.1-9.7-0.8c-6.1-6,1.2-15.6,8.3-10.9c2.5,1.6,2.6,1.6,4.9-1c1.3-1.5,2.3-3.1,2.3-3.5
		c0-1.3-7.6-4.1-10.8-4.1C372.1,844.4,369.5,845,367.9,845.7z"/>
	<path class="st22" d="M406.8,846.2c-9.4,5.7-10,17.2-1.4,24.5c7.2,6,20.1,0.7,23-9.4C431.7,849.8,417.3,839.8,406.8,846.2z
		 M417.3,852.8c3.6,1.8,4.6,5.6,2.7,9.4c-2.6,4.9-7.4,5.5-11.1,1.5c-3.3-3.6-3.2-7.7,0.1-10.3C412.2,850.9,413.6,850.8,417.3,852.8z
		"/>
	<path class="st22" d="M446,850.4c-0.9,9.2-0.7,18.8,0.4,21c0.6,1.1,2.1,1.9,3.5,1.9c2.4,0,2.5-0.2,2.5-7.8l0.1-7.7l2.4,4.6
		c3.4,6.5,5.1,7.7,7.5,5.3c1.1-1,3.1-4.1,4.4-6.8l2.5-5l0.3,8.5l0.3,8.4h3h3l0.3-14.3l0.3-14.2h-3.8c-3.7,0-3.9,0.2-7.8,7.5
		c-2.2,4.1-4.2,7.5-4.5,7.5c-0.3,0-1.3-2.2-2.3-4.8c-2.4-6.8-5.2-10.2-8.6-10.2C446.8,844.3,446.7,844.5,446,850.4z"/>
	<path class="st22" d="M538.9,846.4c-0.4,1.2-2.5,6-4.7,10.6c-2.2,4.7-4.2,10.2-4.5,12.4l-0.6,3.9h3.7c3.3,0,3.6-0.2,3.6-2.9
		c0-3.2,1.4-4.1,6.5-4.1c4.9,0,6.5,0.9,6.5,3.6c0,2.2,0.4,2.4,4.5,2.4c2.9,0,4.5-0.4,4.5-1.3c0-0.6-2.8-6.9-6.2-13.9
		c-6.1-12.2-6.4-12.7-9.5-12.7C540.3,844.3,539.4,844.8,538.9,846.4z M545.3,857.3c0.8,2.5,0.7,3.2-0.4,3.7
		c-3.7,1.3-6.1-2.7-3.3-5.5C543.4,853.7,544.1,854,545.3,857.3z"/>
	<path class="st22" d="M574.5,857.2c0.2,7.1,0.7,13.2,1,13.5c0.4,0.4,2,1.1,3.8,1.6l3.1,0.9l-0.5-8.2l-0.6-8.2l7.3,7.8
		c4.7,4.9,8.1,7.7,9.4,7.7c1.9,0,2.2-0.7,2.8-9.2c0.3-5,0.6-11.3,0.6-14c0-4.7-0.1-4.8-3-4.8h-3v7.5c0,4.1-0.4,7.5-0.9,7.5
		c-0.6,0-3-2.7-5.6-6c-5.4-7.1-8-9-11.8-9h-2.9L574.5,857.2z"/>
	<path class="st22" d="M621.6,851.9c2.1,2.6,3.7,4.4,5.5,6.6c3.6,4.2-1.5,13.9,3.7,14.7s6-7.6,7.9-12.7c1.1-3,2.4-6.9,2.8-8.6
		c0.8-2.9,0.5-8.2-2.6-8.5s-3,7.5-3.4,8.7s-1.6,4.6-2,4.4c-0.6-0.1-2.3-2.4-4.2-5.1c-3.9-5.7-8.2-9.4-9.3-7.2
		C619,846.5,619.5,849.3,621.6,851.9z"/>
	<path class="st22" d="M494.9,851.5c-0.3,3.5-0.5,9.7-0.3,13.8c0.3,7.3,0.4,7.5,3.1,7.8c2.5,0.3,2.7,0.1,2.7-3.7v-4l6.2-0.7
		c11.4-1.3,15.4-9,8.4-16c-3.3-3.3-3.6-3.4-11.4-3.4h-8L494.9,851.5z M508.8,853.2c2.7,3,0.5,6.3-3.7,5.9c-2.9-0.3-3.2-0.6-3.5-4.1
		c-0.3-3.5-0.2-3.7,2.6-3.7C505.8,851.3,507.9,852.2,508.8,853.2z"/>
	<path class="st22" d="M298.6,854.2c-27.6,0.6-29.5,0.7-30.8,2.5c-1.9,2.6-1.8,4.3,0.4,5.4c0.9,0.5,16,1.2,33.4,1.5
		c34.4,0.7,34.8,0.7,34.8-4.7C336.4,853.7,335.2,853.5,298.6,854.2z"/>
	<path class="st22" d="M686.4,854c-3.6,1.5-4.1,6.6-0.7,8.7c3.3,2.1,58.3,0.8,59.7-1.4s1.2-3.6-0.6-5.4c-1.3-1.4-5-1.6-24.8-1.6
		c-12.8,0-25.3-0.2-27.7-0.5C689.9,853.6,687.2,853.6,686.4,854z"/>
</g>
</svg>
